<svg width="121" height="38" viewBox="0 0 121 38" fill="none" xmlns="http://www.w3.org/2000/svg">
<path fill-rule="evenodd" clip-rule="evenodd" d="M24.5476 23.1713C24.2624 23.4138 23.9762 23.6313 23.689 23.8242C22.7849 24.4116 21.715 24.7054 20.4791 24.7054C19.2798 24.7054 18.256 24.3739 17.4074 23.7105C16.5771 23.0467 15.784 21.9096 15.0277 20.2983C14.4188 19.0096 13.9394 18.0618 13.5886 17.4551C13.2382 16.8297 12.8878 16.3842 12.5373 16.119C12.205 15.8534 11.7901 15.6923 11.2918 15.6356C11.2183 16.0334 11.006 17.2846 10.6556 19.3886C10.5078 20.3364 10.4158 20.9143 10.3787 21.1228C10.1945 22.2792 9.82533 23.17 9.27202 23.7957C8.71863 24.402 7.87904 24.7054 6.7539 24.7054C5.51778 24.7054 4.42007 24.3358 3.46079 23.5964C2.5199 22.8385 1.79131 21.7958 1.27473 20.469C0.758138 19.1234 0.5 17.5973 0.5 15.8915C0.5 12.7068 1.03498 9.95836 2.10494 7.64592C3.1933 5.33346 4.70596 3.57068 6.64323 2.35759C8.59862 1.12561 10.8492 0.509289 13.395 0.509289C15.1661 0.509289 16.6511 0.784134 17.8501 1.33382C19.0494 1.88351 19.9348 2.64173 20.5066 3.60848C21.097 4.57524 21.3923 5.66532 21.3923 6.87841C21.3923 7.93966 21.1432 8.9823 20.645 10.0058C20.1655 11.0104 19.4366 11.9015 18.4589 12.6787C17.4812 13.4557 16.2912 14.034 14.8893 14.4129C15.7747 14.6592 16.4574 15.0574 16.9369 15.6071C17.4167 16.1567 17.8962 16.9624 18.376 18.024C18.8926 19.1612 19.3998 19.9953 19.898 20.5258C20.4143 21.0566 21.0047 21.3221 21.6688 21.3221C22.2593 21.3221 22.822 21.1228 23.357 20.725C23.4832 20.6263 23.6176 20.5116 23.7595 20.3812C23.7557 20.2794 23.7539 20.176 23.7539 20.0709C23.7539 18.5548 24.0781 17.1235 24.7266 15.7778C25.3747 14.4129 26.2333 13.3231 27.3023 12.5079C28.3888 11.6741 29.5364 11.257 30.7454 11.257C31.131 11.257 31.3848 11.3422 31.5076 11.5129C31.6479 11.6645 31.7617 11.9489 31.8493 12.3657C32.2172 12.29 32.6029 12.252 33.0056 12.252C33.8642 12.252 34.2935 12.5838 34.2935 13.2472C34.2935 13.6454 34.1622 14.5929 33.8995 16.0905C33.4963 18.2703 33.295 19.7867 33.295 20.6398C33.295 20.9239 33.356 21.1513 33.4789 21.3221C33.6192 21.4925 33.7944 21.578 34.0045 21.578C34.3375 21.578 34.7406 21.3506 35.2135 20.8954C35.6868 20.4216 36.3262 19.6634 37.1324 18.6211C37.2415 18.483 37.3578 18.3812 37.4813 18.3148C37.5071 18.0371 37.5318 17.7601 37.5548 17.4836C37.6655 16.4601 37.8407 14.9341 38.0805 12.9061C38.1543 12.3564 38.3573 11.9582 38.6893 11.7119C39.0214 11.4463 39.5286 11.3137 40.2113 11.3137C40.7647 11.3137 41.1245 11.3992 41.2903 11.5697C41.4749 11.7403 41.5672 11.9771 41.5672 12.2804C41.5672 13.1524 41.2629 15.5597 40.6541 19.5023L40.3772 21.4643C41.7147 20.4335 42.9461 19.5273 44.0716 18.7456C44.3159 18.206 44.6767 17.6998 45.1543 17.2277C46.1319 16.2609 47.534 15.3322 49.3602 14.4414L44.8223 14.5551C44.4163 14.574 44.1028 14.4318 43.8814 14.1284C43.6784 13.8062 43.5771 13.4272 43.5771 12.9912C43.5771 12.5364 43.6784 12.1382 43.8814 11.7971C44.1028 11.4371 44.3979 11.257 44.7668 11.257C45.6154 11.257 46.7499 11.3233 48.1706 11.4559C48.4658 11.4748 49.0008 11.5126 49.7755 11.5697C50.5686 11.6263 51.233 11.6549 51.7679 11.6549C51.9522 11.6549 52.3029 11.5789 52.8192 11.4274C52.9115 11.4085 53.0867 11.3611 53.3452 11.2852C53.6217 11.2096 53.8524 11.1714 54.037 11.1714C54.3322 11.1714 54.572 11.3041 54.7565 11.5697C54.9595 11.8349 55.0608 12.2427 55.0608 12.7924C55.0608 13.3987 54.9224 13.8725 54.6458 14.2139C54.369 14.5551 53.9353 14.8582 53.3452 15.1237C51.6663 15.863 50.2737 16.6591 49.1667 17.5121C48.0599 18.3459 47.5065 19.18 47.5065 20.0142C47.5065 20.5446 47.7462 20.9806 48.2258 21.3221C48.7055 21.6632 49.4157 21.8336 50.3566 21.8336C51.3895 21.8336 52.432 21.5684 53.4836 21.0376C54.3331 20.6161 55.1132 20.0212 55.8234 19.253C55.8187 18.9113 55.8165 18.549 55.8165 18.1659C55.8165 15.247 56.1024 14.8678 56.6745 11.7023C57.2646 8.53679 58.1226 5.88315 59.2477 3.7411C60.3916 1.58015 61.7568 0.5 63.3433 0.5C64.1919 0.5 64.8743 0.878951 65.3909 1.63717C65.9259 2.3765 66.3857 3.35927 66.3857 4.55345C66.3857 10.2899 62.1169 10.8713 59.5922 14.9629C59.2477 15.6836 59.1648 17.0383 59.1648 18.0806C60.0502 15.7111 61.065 13.9958 62.2088 12.9346C63.3524 11.8541 64.4223 11.3137 65.4187 11.3137C66.3408 11.3137 67.0788 11.6359 67.6322 12.2804C68.2042 12.925 68.4901 13.721 68.4901 14.6688C68.4901 15.7111 68.232 16.6687 67.7154 17.5406C67.1988 18.4125 66.3135 19.1896 65.0589 19.8719C65.1328 20.3839 65.3542 20.8006 65.723 21.1228C66.1105 21.4262 66.5716 21.578 67.1066 21.578C67.6783 21.578 68.232 21.3506 68.767 20.8954C69.0669 20.6404 69.4195 20.2897 69.8238 19.8435C69.7721 19.4837 69.7462 19.1141 69.7462 18.7345C69.7462 17.2939 70.0137 16.0145 70.5487 14.8962C71.0837 13.7588 71.8216 12.8775 72.7625 12.252C73.7034 11.6074 74.7456 11.2852 75.8894 11.2852C77.2916 11.2852 78.4169 11.7875 79.2654 12.7924C80.1326 13.778 80.6399 15.0004 80.7873 16.4601C81.43 16.4178 82.164 16.3028 82.9893 16.1148C83.1592 15.018 83.4046 13.9484 83.7256 12.9061C83.8917 12.3564 84.1588 11.9582 84.5277 11.7119C84.9153 11.4463 85.4502 11.3137 86.1326 11.3137C86.5015 11.3137 86.7596 11.3611 86.9078 11.4559C87.0552 11.5508 87.1293 11.7307 87.1293 11.996C87.1293 12.2993 86.9908 12.9816 86.714 14.0433C86.5292 14.8014 86.3818 15.4648 86.271 16.0334C86.1603 16.6023 86.0683 17.3035 85.9942 18.1377C86.6032 16.5075 87.2856 15.1807 88.0421 14.157C88.7985 13.1335 89.5363 12.4038 90.2561 11.9678C90.9938 11.5318 91.6672 11.3137 92.2755 11.3137C93.4749 11.3137 94.075 11.9297 94.075 13.162C94.075 13.901 93.8715 15.2374 93.4659 17.1709C93.1158 18.82 92.9399 19.9097 92.9399 20.4405C92.9399 21.1988 93.2071 21.578 93.742 21.578C94.1117 21.578 94.5449 21.3503 95.0432 20.8954C95.4098 20.5591 95.8603 20.0795 96.3937 19.4565C96.4304 18.468 96.5157 17.5451 96.6504 16.6876C96.8352 15.4934 97.139 14.2328 97.564 12.9061C97.748 12.3375 98.0062 11.9297 98.3384 11.6834C98.6706 11.4371 99.1966 11.3137 99.9156 11.3137C100.322 11.3137 100.598 11.38 100.746 11.5129C100.912 11.6456 100.995 11.8445 100.995 12.1097C100.995 12.2616 100.894 12.7734 100.691 13.6454C100.506 14.3465 100.359 14.9815 100.248 15.5501C100.1 16.3275 99.971 17.0761 99.8603 17.7962C99.7495 18.4977 99.6942 19.0759 99.6942 19.5308C99.6942 20.2509 99.8879 20.6113 100.276 20.6113C100.552 20.6113 100.894 20.3268 101.299 19.7582C101.724 19.1896 102.166 18.327 102.627 17.1709C103.108 16.0145 103.568 14.5929 104.011 12.9061C104.159 12.3375 104.38 11.9297 104.675 11.6834C104.989 11.4371 105.45 11.3137 106.059 11.3137C106.483 11.3137 106.778 11.3707 106.944 11.4844C107.111 11.5981 107.194 11.7878 107.194 12.053C107.194 12.5268 106.953 14.157 106.474 16.9435L105.755 21.521C107.012 20.5475 108.241 19.6487 109.441 18.8238C109.324 17.0265 109.265 15.4046 109.265 13.958V12.9627C109.284 12.3372 109.449 11.9012 109.764 11.6549C110.077 11.4085 110.547 11.2852 111.175 11.2852C111.655 11.2852 112.005 11.3989 112.226 11.6263C112.466 11.8349 112.586 12.1952 112.586 12.7068C112.586 14.8866 112.715 17.7206 112.974 21.2084C113.767 19.8057 114.449 18.5259 115.021 17.3699C115.611 16.1946 116.248 14.6499 116.93 12.7353C117.134 12.1667 117.401 11.7875 117.733 11.5981C118.065 11.3896 118.48 11.2852 118.978 11.2852C119.993 11.2852 120.5 11.617 120.5 12.2804C120.5 12.5079 120.426 12.8205 120.279 13.2187C118.784 16.8013 117.373 19.692 116.045 21.8907C115.399 22.9712 114.781 23.7101 114.191 24.1083C113.601 24.5065 112.955 24.7054 112.254 24.7054C111.479 24.7054 110.87 24.4116 110.427 23.8239C110.085 23.3552 109.842 22.671 109.698 21.7715L105.201 24.8761C104.5 28.7995 103.577 31.8798 102.434 34.1167C101.309 36.3722 99.87 37.5 98.1169 37.5C97.1764 37.5 96.411 37.1967 95.8206 36.5903C95.2303 36.0025 94.9347 35.2254 94.9347 34.2586C94.9347 33.3677 95.1285 32.458 95.5161 31.5291C95.9216 30.6004 96.6601 29.5296 97.7301 28.3165C98.818 27.1223 100.349 25.7481 102.323 24.1935L102.406 23.5397C102.535 22.8385 102.683 21.8336 102.849 20.5258C102.48 21.8907 101.964 22.933 101.299 23.6535C100.635 24.3547 99.9343 24.7054 99.1966 24.7054C98.3661 24.7054 97.6837 24.3168 97.1487 23.5397C96.9878 23.2915 96.8517 23.0247 96.7409 22.7395C96.3451 23.1105 95.9366 23.4437 95.5138 23.7386C94.61 24.3832 93.5767 24.7054 92.414 24.7054C91.4734 24.7054 90.7634 24.4305 90.2838 23.8809C89.8041 23.3123 89.564 22.497 89.564 21.4358C89.564 20.905 89.6934 19.9572 89.9515 18.5926C90.1917 17.3983 90.3114 16.5738 90.3114 16.119C90.3114 15.8156 90.2097 15.6638 90.0069 15.6638C89.7675 15.6638 89.4255 15.986 88.9833 16.6305C88.5591 17.2561 88.1162 18.0903 87.6545 19.1327C87.2123 20.1753 86.8524 21.2747 86.5756 22.4308C86.3728 23.3216 86.1326 23.9283 85.8558 24.2506C85.5976 24.5539 85.1824 24.7054 84.6107 24.7054C83.9096 24.7054 83.4113 24.3265 83.1165 23.5683C82.8397 22.81 82.7013 21.5969 82.7013 19.9287C82.7013 19.6797 82.705 19.4322 82.7117 19.1855C82.0324 19.3268 81.3163 19.4133 80.5658 19.4452C80.2157 21.0376 79.5236 22.3171 78.4903 23.2838C77.4577 24.2317 76.286 24.7054 74.9763 24.7054C73.8692 24.7054 72.9193 24.4305 72.1259 23.8809C71.594 23.5035 71.1489 23.041 70.7906 22.4935C70.3127 22.9859 69.832 23.4107 69.3481 23.7672C68.4995 24.3928 67.4941 24.7054 66.3318 24.7054C64.9111 24.7054 63.7676 24.2883 62.9006 23.4545C62.0333 22.6204 61.6 21.5114 61.6 20.1279C61.6 19.3886 61.9688 18.8578 62.7067 18.5355C63.5185 18.1755 64.0996 17.7965 64.45 17.3983C64.8005 16.9813 64.976 16.479 64.976 15.8915C64.976 15.5501 64.9021 15.2945 64.7543 15.1237C64.6252 14.9533 64.4594 14.8678 64.2564 14.8678C63.7583 14.8678 63.2049 15.2374 62.596 15.9768C62.0059 16.716 61.4522 17.6732 60.9359 18.8485C60.4193 20.0045 60.0134 21.1988 59.7182 22.4308C59.5152 23.3219 59.2755 23.9283 58.9986 24.2506C58.7405 24.5539 58.3255 24.7054 57.7534 24.7054C57.1817 24.7054 56.7574 24.4969 56.4805 24.0798C56.2847 23.7492 56.1367 23.288 56.0362 22.6957C55.4601 23.2012 54.8214 23.6342 54.1199 23.9946C52.8469 24.658 51.4082 24.9898 49.8033 24.9898C48.5487 24.9898 47.4604 24.8003 46.5379 24.4209C45.6154 24.0231 44.9052 23.4923 44.407 22.8289C44.2103 22.5489 44.0541 22.2562 43.9378 21.9509C42.8143 22.7245 41.4521 23.6807 39.8516 24.8191C39.132 28.7618 38.2005 31.8609 37.0567 34.1167C35.9128 36.3722 34.4556 37.5 32.6845 37.5C31.7252 37.5 30.9596 37.1967 30.3878 36.5903C29.7973 36.0025 29.5024 35.2254 29.5024 34.2586C29.5024 32.9129 30.0096 31.4724 31.0241 29.937C32.0389 28.4206 33.9481 26.5441 36.7524 24.3075L36.9459 22.8574C36.959 22.7661 36.9718 22.6749 36.9843 22.5838C36.598 22.9984 36.2006 23.3738 35.7918 23.7105C34.986 24.3739 34.2059 24.7054 33.4527 24.7054C32.8744 24.7054 32.34 24.4969 31.8493 24.0801C31.3761 23.6442 31.0169 23.0563 30.7716 22.3171C29.8606 23.9094 28.7127 24.7054 27.3285 24.7054C26.242 24.7054 25.3747 24.279 24.7266 23.426C24.6639 23.3437 24.6043 23.2588 24.5476 23.1713ZM98.4214 34.742C98.8823 34.742 99.3994 34.1923 99.971 33.0929C100.543 31.9935 101.115 30.1645 101.687 27.6057C100.267 28.8376 99.2332 29.9559 98.5875 30.9605C97.9605 31.9843 97.6463 32.8751 97.6463 33.6333C97.6463 33.9556 97.7024 34.2208 97.8124 34.4294C97.9418 34.6379 98.1446 34.742 98.4214 34.742ZM7.47313 15.6071C6.84619 15.6071 6.41253 15.4555 6.17278 15.1522C5.95143 14.8489 5.84076 14.5077 5.84076 14.1284C5.84076 13.6735 5.97887 13.3135 6.25571 13.0483C6.55095 12.7827 6.88297 12.6501 7.25178 12.6501H7.94358C8.23879 10.7925 8.51564 9.19088 8.77377 7.84485C9.0135 6.61286 9.78859 5.99686 11.0983 5.99686C12.1498 5.99686 12.6755 6.48024 12.6755 7.447C12.6755 7.65553 12.6664 7.81666 12.648 7.93037L11.8178 12.6501C12.8139 12.5931 13.718 12.3468 14.5295 11.9108C15.3597 11.4748 16.0147 10.8685 16.4942 10.091C16.9924 9.31388 17.2415 8.43262 17.2415 7.447C17.2415 6.2528 16.8446 5.31456 16.0515 4.63225C15.2584 3.94964 14.0962 3.60848 12.5648 3.60848C10.7569 3.60848 9.17033 4.07296 7.80547 5.0016C6.45867 5.91165 5.4071 7.27626 4.65077 9.09609C3.89444 10.8966 3.51628 13.0953 3.51628 15.6923C3.51628 16.9054 3.636 17.948 3.87605 18.82C4.11579 19.692 4.41103 20.3457 4.76144 20.7817C5.11187 21.2177 5.44389 21.4358 5.75752 21.4358C5.99726 21.4358 6.19118 21.3125 6.33864 21.0662C6.50481 20.8198 6.63387 20.4216 6.72616 19.8719L7.47313 15.6071ZM63.4081 3.25644C61.5176 2.57574 58.8795 10.5811 59.5523 11.4844C61.3305 10.1483 66.5681 4.39419 63.4081 3.25644ZM28.2747 21.834C28.6603 21.834 29.0282 21.5873 29.3786 21.0947C29.729 20.6017 29.9831 19.9479 30.1409 19.1327L31.1132 13.9013C30.3775 13.9203 29.6942 14.2232 29.0631 14.811C28.4499 15.3796 27.9592 16.1378 27.5913 17.0857C27.2235 18.0333 27.0395 19.0378 27.0395 20.0994C27.0395 20.6872 27.1446 21.1231 27.3547 21.4073C27.5826 21.6917 27.8894 21.834 28.2747 21.834ZM32.9888 34.742C33.4686 34.742 33.9942 34.183 34.5663 33.0644C35.1381 31.9462 35.6731 30.1456 36.1712 27.6624C34.7693 28.8944 33.7638 30.0034 33.155 30.989C32.5277 31.9935 32.2141 32.8751 32.2141 33.6333C32.2141 34.3723 32.4725 34.742 32.9888 34.742ZM75.1976 21.6914C75.7877 21.6914 76.2957 21.4451 76.72 20.9525C77.1622 20.4594 77.4577 19.7486 77.6051 18.82C77.0335 18.4218 76.5905 17.9007 76.277 17.2561C75.9815 16.6116 75.8341 15.9293 75.8341 15.2089C75.8341 14.9055 75.8618 14.6026 75.9171 14.2992H75.7787C75.0408 14.2992 74.4229 14.6688 73.9248 15.4082C73.4449 16.1282 73.2052 17.1517 73.2052 18.4789C73.2052 19.5212 73.3988 20.3172 73.7863 20.8669C74.1922 21.4166 74.6627 21.6914 75.1976 21.6914ZM73.3714 9.4372C72.7809 9.4372 72.3198 9.27606 71.9878 8.95386C71.6558 8.61267 71.4896 8.0915 71.4896 7.38998C71.4896 6.63176 71.6832 6.04427 72.0707 5.6272C72.4766 5.19123 73.0116 4.97341 73.6757 4.97341C74.2661 4.97341 74.7272 5.14382 75.0592 5.48497C75.3911 5.80723 75.5572 6.31911 75.5572 7.02032C75.5572 7.77854 75.3545 8.37565 74.9486 8.81163C74.5611 9.2287 74.0354 9.4372 73.3714 9.4372ZM79.127 9.4372C78.5367 9.4372 78.0758 9.27606 77.7435 8.95386C77.4113 8.61267 77.2452 8.0915 77.2452 7.38998C77.2452 6.63176 77.439 6.04427 77.8266 5.6272C78.2321 5.19123 78.7671 4.97341 79.4315 4.97341C80.0219 4.97341 80.4828 5.14382 80.815 5.48497C81.1472 5.80723 81.3133 6.31911 81.3133 7.02032C81.3133 7.77854 81.1105 8.37565 80.7043 8.81163C80.3167 9.2287 79.7914 9.4372 79.127 9.4372Z" fill="white"/>
<path d="M38.8277 8.84338C39.1598 9.16558 39.6208 9.32672 40.2113 9.32672C40.8754 9.32672 41.401 9.11822 41.7885 8.70116C42.1944 8.26517 42.3974 7.66805 42.3974 6.90983C42.3974 6.20864 42.2312 5.69674 41.8992 5.3745C41.5672 5.03334 41.1061 4.86293 40.5156 4.86293C39.8516 4.86293 39.3166 5.08075 38.9107 5.51672C38.5231 5.93379 38.3296 6.52127 38.3296 7.27949C38.3296 7.98102 38.4957 8.50219 38.8277 8.84338Z" fill="white"/>
</svg>
