<svg width="479" height="478" viewBox="0 0 479 478" fill="none" xmlns="http://www.w3.org/2000/svg">
<path d="M466.599 35.7764C465.994 15.7892 449.215 0.125647 429.234 0.893326L44.6179 15.67C25.2877 16.4127 10 32.299 10 51.6435V436.107C10 456.335 26.6602 472.592 46.8815 472.097L443.301 462.387C463.259 461.898 479.008 445.262 478.403 425.307L466.599 35.7764Z" fill="#952F2D"/>
<path d="M422.008 4.45312L43.0859 9.00586C24.1952 9.23286 9 24.6118 9 43.5039V432.133C9 451.299 24.6218 466.791 43.7871 466.632L442.892 463.312C462.532 463.149 478.074 446.645 477.059 427.03L456.877 37.167C455.919 18.6707 440.528 4.23058 422.008 4.45312Z" stroke="#BB3B39" stroke-width="3"/>
</svg>
