<svg width="478" height="479" viewBox="0 0 478 479" fill="none" xmlns="http://www.w3.org/2000/svg">
<path d="M474.07 37.0395C474.575 16.3803 457.623 -0.462177 436.967 0.177105L42.0342 12.4002C22.3375 13.0098 6.79147 29.3424 7.15397 49.0452L14.3411 439.686C14.7055 459.495 31.0066 475.286 50.8166 475.021L428.839 469.964C448.19 469.705 463.874 454.193 464.347 434.847L474.07 37.0395Z" fill="#00848C"/>
<path d="M427.602 5H36.7275C17.4037 5.00023 1.84863 20.8704 2.23535 40.1904L10.293 442.69C10.669 461.471 26.0016 476.5 44.7861 476.5H434.388C453.669 476.5 469.208 460.697 468.883 441.418L462.097 38.918C461.779 20.0938 446.428 5 427.602 5Z" stroke="#00A6B0" stroke-width="3"/>
</svg>
