<svg width="479" height="479" viewBox="0 0 479 479" fill="none" xmlns="http://www.w3.org/2000/svg">
<path d="M466.586 443.135C465.988 463.156 449.162 478.84 429.148 478.031L53.0278 462.834C34.349 462.08 19.3559 447.154 18.5173 428.479L1.43891 48.1148C0.518665 27.6194 16.8866 10.5 37.4027 10.5H442.409C462.712 10.5 478.999 27.2801 478.393 47.5742L466.586 443.135Z" fill="#005867"/>
<path d="M416.329 474.084L37.9473 465.245C18.7734 464.797 3.64555 448.798 4.27148 429.629L17.1387 35.5938C17.7686 16.3023 34.1023 1.28059 53.3789 2.26465L440.833 22.0479C459.945 23.0237 474.611 39.3688 473.518 58.4746L451.578 441.566C450.515 460.135 434.923 474.518 416.329 474.084Z" stroke="#4C99A6" stroke-width="3"/>
</svg>
