<svg width="479" height="479" viewBox="0 0 479 479" fill="none" xmlns="http://www.w3.org/2000/svg">
<path d="M12.4145 35.8653C13.0121 15.8436 29.8375 0.160102 49.8518 0.96876L425.972 16.1655C444.651 16.9202 459.644 31.8462 460.483 50.5214L477.561 430.885C478.481 451.381 462.113 468.5 441.597 468.5H36.5907C16.2876 468.5 0.00089818 451.72 0.606691 431.426L12.4145 35.8653Z" fill="#006E81"/>
<path d="M62.6709 4.91602L441.053 13.7549C460.227 14.2028 475.354 30.2022 474.729 49.3711L461.861 443.406C461.231 462.698 444.898 477.719 425.621 476.735L38.167 456.952C19.0548 455.976 4.3885 439.631 5.48242 420.525L27.4219 37.4336C28.4854 18.8649 44.0768 4.48176 62.6709 4.91602Z" stroke="#4C99A6" stroke-width="3"/>
</svg>
