<svg width="478" height="478" viewBox="0 0 478 478" fill="none" xmlns="http://www.w3.org/2000/svg">
<path d="M6.50197 423.019C6.22808 443.47 23.0602 460.023 43.5095 459.671C190.978 457.135 293.772 463.888 441.431 461.313C461.523 460.962 477.307 444.061 476.461 423.984L460.924 55.2968C460.124 36.3006 444.668 21.2016 425.659 20.8193C283.175 17.9538 190.197 16.0838 48.274 13.2295C28.3012 12.8278 11.7822 28.7644 11.5147 48.7394L6.50197 423.019Z" fill="#72A888"/>
<path d="M43.2002 464.255L437.919 456.242C457.176 455.851 472.383 439.768 471.696 420.52L458.705 56.3232C458.056 38.1282 443.379 23.5694 425.18 23.0664L43.4531 12.5215C24.0337 11.985 8.00022 27.581 8 47.0078V429.762L8.01172 430.665C8.49714 449.572 24.1783 464.641 43.2002 464.255Z" stroke="#5B866C" stroke-width="3"/>
</svg>
