<svg width="479" height="478" viewBox="0 0 479 478" fill="none" xmlns="http://www.w3.org/2000/svg">
<path d="M466.086 35.8799C465.496 16.1364 448.904 0.671328 429.168 1.46875L53.0479 16.665C34.6285 17.4093 19.8435 32.1282 19.0166 50.5439L1.93848 430.907C1.03101 451.118 17.1714 468 37.4023 468H442.409C462.43 468 478.491 451.453 477.894 431.44L466.086 35.8799Z" fill="#1C5B78" stroke="#659CB6"/>
<path d="M60.8799 4.66602L441.735 11.835C460.533 12.1888 475.586 27.5284 475.586 46.3291V439.855C475.586 459.514 459.184 475.199 439.546 474.321L45.1934 456.697C26.2855 455.852 11.5884 439.932 12.2549 421.017L25.752 37.9453C26.4151 19.1238 42.05 4.31161 60.8799 4.66602Z" stroke="#237297" stroke-width="3"/>
</svg>
