<svg width="481" height="478" viewBox="0 0 481 478" fill="none" xmlns="http://www.w3.org/2000/svg">
<path d="M16.0704 36.4875C16.3057 16.2242 33.2128 0.147781 53.4622 0.932645L433.394 15.6587C452.72 16.4077 468 32.2919 468 51.6317V437C468 456.882 451.882 473 432 473H47.4206C27.3748 473 11.1902 456.626 11.423 436.582L16.0704 36.4875Z" fill="#254E70"/>
<path d="M59.7764 4.4502L438.914 9.00586C457.805 9.23286 473 24.6118 473 43.5039V432.921C473 451.791 457.839 467.161 438.971 467.418L36.6504 472.906C16.6267 473.179 0.578357 456.403 1.73828 436.411L24.9199 36.9492C25.9881 18.5426 41.3401 4.22865 59.7764 4.4502Z" stroke="#66839A" stroke-width="3"/>
</svg>
