<svg width="478" height="478" viewBox="0 0 478 478" fill="none" xmlns="http://www.w3.org/2000/svg">
<path d="M12.0704 36.4875C12.3057 16.2242 29.2128 0.147781 49.4622 0.932645L429.394 15.6587C448.72 16.4077 464 32.2919 464 51.6317V437C464 456.882 447.882 473 428 473H43.4206C23.3748 473 7.19019 456.626 7.42302 436.582L12.0704 36.4875Z" fill="#00404A"/>
<path d="M56.1445 4.4541L434.914 9.00586C453.805 9.23286 469 24.6118 469 43.5039V433.007C469 451.845 453.889 467.2 435.054 467.502L37.3271 473.885C17.4166 474.204 1.37087 457.649 2.3125 437.758L21.2695 37.3203C22.1483 18.7614 37.5661 4.23111 56.1445 4.4541Z" stroke="#4C7980" stroke-width="3"/>
</svg>
