<svg width="614" height="615" viewBox="0 0 614 615" fill="none" xmlns="http://www.w3.org/2000/svg">
<path d="M606.983 570.076C607.607 591.088 590.531 608.273 569.71 607.589L41.9382 590.245C22.2571 589.598 6.71758 573.161 7.0039 553.293L14.1367 58.5706C14.4179 39.0708 29.8629 23.2502 49.1808 22.6745L554.179 7.62486C574.11 7.03087 590.747 22.8491 591.343 42.9605L606.983 570.076Z" fill="#0C0902" fill-opacity="0.21"/>
<path d="M570.396 9.74927C589.683 9.41184 605.5 24.9544 605.5 44.2444L605.5 569.164C605.5 588.16 590.145 603.581 571.149 603.663L45.7842 605.941C25.7176 606.028 9.81095 589.036 11.2197 569.019L47.7227 50.3792C48.9781 32.5415 63.6542 18.6199 81.5332 18.3069L570.396 9.74927Z" stroke="#0C0902" stroke-opacity="0.28" stroke-width="3"/>
</svg>
