<svg width="614" height="615" viewBox="0 0 614 615" fill="none" xmlns="http://www.w3.org/2000/svg">
<path d="M606.985 45.0737L592.138 572.201C591.57 592.386 574.743 608.259 554.622 607.588L54.5471 590.921C35.3087 590.28 19.9087 574.696 19.4387 555.394L7.01105 44.9343C6.51282 24.469 22.9164 7.6087 43.3256 7.6087H570.675C591.138 7.60883 607.563 24.5558 606.985 45.0737Z" fill="#0C0902" fill-opacity="0.21"/>
<path d="M75.582 9.92407L567.214 21.4827C585.835 21.9204 600.747 37.0601 600.902 55.6858L605.183 569.49C605.348 589.323 588.797 605.21 568.987 604.236L43.3975 578.369C24.2298 577.426 9.51607 561.022 10.6543 541.865L40.332 42.3684C41.4338 23.8286 57.0146 9.48761 75.582 9.92407Z" stroke="#0C0902" stroke-opacity="0.28" stroke-width="3"/>
</svg>
