<svg width="614" height="615" viewBox="0 0 614 615" fill="none" xmlns="http://www.w3.org/2000/svg">
<path d="M607 567.676C607 587.521 590.457 603.608 570.05 603.608L43.9496 603.609C23.3728 603.609 6.76064 587.262 7.00261 567.253L13.3424 43.1199C13.5869 22.9035 30.9278 6.86242 51.7027 7.63545L571.463 26.9802C591.306 27.7188 607 43.5765 607 62.8867V567.676Z" fill="#0C0902" fill-opacity="0.21"/>
<path d="M52.8037 9.10864L571 9.10865C590.054 9.10866 605.5 24.5548 605.5 43.6086L605.5 562.487C605.5 581.323 590.392 596.678 571.558 596.983L44.1992 605.507C24.6945 605.822 8.80765 589.917 9.14649 570.412L18.3086 43.009C18.6357 24.1918 33.9836 9.10864 52.8037 9.10864Z" stroke="#0C0902" stroke-opacity="0.28" stroke-width="3"/>
</svg>
