<svg width="554" height="430" viewBox="0 0 554 430" fill="none" xmlns="http://www.w3.org/2000/svg">
<path d="M546.987 33.522L533.625 398.118C533.113 412.08 517.969 423.058 499.859 422.594L49.7924 411.066C32.4778 410.623 18.6178 399.844 18.1949 386.494L7.00998 33.4255C6.56152 19.2704 21.3248 7.60864 39.693 7.60864L514.307 7.60864C532.724 7.60874 547.507 19.3304 546.987 33.522Z" fill="#9F5856"/>
<path d="M43.4697 420.613L509.342 414.273C528.997 414.005 544.457 397.394 543.314 377.77L524.55 55.5842C523.51 37.7237 508.989 23.622 491.105 23.1047L43.9971 10.179C24.5608 9.61707 8.50007 25.22 8.5 44.6643L8.5 386.115C8.50006 405.353 24.2341 420.874 43.4697 420.613Z" stroke="white" stroke-opacity="0.2" stroke-width="3"/>
</svg>
