<svg width="554" height="430" viewBox="0 0 554 430" fill="none" xmlns="http://www.w3.org/2000/svg">
<path d="M546.969 395.893C547.771 410.456 533.001 422.609 514.499 422.609L39.5 422.609C21.5509 422.609 7 411.145 7 397.003L21.4445 33.2146C21.4446 18.6547 36.8344 7.02488 55.2986 7.63135L496.895 27.5891C513.759 28.143 527.279 38.7756 528.011 52.0611L546.969 395.893Z" fill="#A84E4C"/>
<path d="M60.3633 9.61841L511.504 16.2131C530.359 16.4887 545.5 31.8522 545.5 50.7092L545.5 386.089C545.5 405.336 529.751 420.861 510.506 420.585L44.1523 413.905C24.6814 413.626 9.29923 397.298 10.1816 377.845L25.3945 42.551C26.2396 23.9292 41.7242 9.34596 60.3633 9.61841Z" stroke="white" stroke-opacity="0.2" stroke-width="3"/>
</svg>
