<svg width="554" height="430" viewBox="0 0 554 430" fill="none" xmlns="http://www.w3.org/2000/svg">
<path d="M547 393.829C547 407.514 532.111 418.608 513.745 418.608L40.2546 418.609C21.7355 418.609 6.78458 407.336 7.00236 393.538L12.7082 32.0971C12.9282 18.1559 28.535 7.09399 47.2324 7.62707L515.017 20.9672C532.875 21.4765 547 32.4119 547 45.7282L547 393.829Z" fill="#00858D"/>
<path d="M44.8486 421.008L511.092 419.771C530.11 419.72 545.5 404.289 545.5 385.271L545.5 43.7336C545.5 24.6333 529.981 9.16769 510.881 9.23365L60.8594 10.7913C42.4889 10.8549 27.3901 25.3028 26.5176 43.6526L10.2959 384.87C9.35903 404.581 25.1156 421.06 44.8486 421.008Z" stroke="white" stroke-opacity="0.2" stroke-width="3"/>
</svg>
