<svg width="554" height="430" viewBox="0 0 554 430" fill="none" xmlns="http://www.w3.org/2000/svg">
<path d="M546.985 396.648C547.546 411.182 532.178 423.068 513.439 422.595L38.4444 410.599C20.7314 410.151 6.74582 398.782 7.00351 385.04L13.4231 42.8574C13.6761 29.37 27.5766 18.4274 44.9627 18.0292L499.461 7.61986C517.399 7.20905 532.372 18.1499 532.909 32.0603L546.985 396.648Z" fill="#3E6C71"/>
<path d="M58.6826 9.83813L511.714 19.2092C530.485 19.5977 545.5 34.9259 545.5 53.7014L545.5 386.232C545.5 405.426 529.834 420.93 510.641 420.73L44.0967 415.864C24.6434 415.661 9.20505 399.422 9.98437 379.984L23.4961 42.9495C24.2489 24.1714 39.8935 9.4495 58.6826 9.83813Z" stroke="white" stroke-opacity="0.2" stroke-width="3"/>
</svg>
