<svg width="554" height="430" viewBox="0 0 554 430" fill="none" xmlns="http://www.w3.org/2000/svg">
<path d="M546.985 396.648C547.546 411.182 532.178 423.068 513.439 422.595L38.4444 410.599C20.7314 410.151 6.74582 398.782 7.00351 385.04L13.4231 42.8574C13.6761 29.37 27.5766 18.4274 44.9627 18.0292L499.461 7.61986C517.399 7.20905 532.372 18.1499 532.909 32.0603L546.985 396.648Z" fill="#B24543"/>
<path d="M71.4053 9.72095L507.604 17.6018C526.267 17.939 541.277 33.0585 541.479 51.7229L545.091 384.832C545.304 404.544 528.986 420.426 509.288 419.681L44.4756 402.101C24.9034 401.361 9.8721 384.494 11.3818 364.966L36.3848 41.5569C37.7924 23.3489 53.146 9.39126 71.4053 9.72095Z" stroke="white" stroke-opacity="0.2" stroke-width="3"/>
</svg>
