<svg width="614" height="615" viewBox="0 0 614 615" fill="none" xmlns="http://www.w3.org/2000/svg">
<path d="M606.985 45.0737L592.138 572.201C591.57 592.386 574.743 608.259 554.622 607.588L54.5471 590.921C35.3087 590.28 19.9087 574.696 19.4387 555.394L7.01105 44.9343C6.51282 24.469 22.9164 7.6087 43.3256 7.6087H570.675C591.138 7.60883 607.563 24.5558 606.985 45.0737Z" fill="#0C0902" fill-opacity="0.21"/>
<path d="M62.9307 9.78247L571.656 19.4583C590.451 19.8158 605.5 35.1543 605.5 53.9524L605.5 570.931C605.5 590.236 589.659 605.785 570.357 605.425L43.6104 595.607C24.3411 595.247 9.103 579.171 9.77441 559.91L27.7949 43.0735C28.4516 24.2442 44.0934 9.42418 62.9307 9.78247Z" stroke="#0C0902" stroke-opacity="0.28" stroke-width="3"/>
</svg>
