<svg width="554" height="430" viewBox="0 0 554 430" fill="none" xmlns="http://www.w3.org/2000/svg">
<path d="M546.986 33.6747L533.344 397.999C532.831 411.703 518.208 422.608 500.344 422.609L40.0152 422.609C21.4021 422.608 6.46837 410.806 7.01452 396.527L20.2558 50.3603C20.7606 37.164 34.3834 26.4764 51.563 25.7992L512.292 7.64273C531.541 6.88423 547.54 18.8886 546.986 33.6747Z" fill="#BB3B39"/>
<path d="M51.5762 9.10864L511 9.10865C530.054 9.10865 545.5 24.5548 545.5 43.6086L545.5 380.344C545.5 399.231 530.314 414.607 511.429 414.842L44.2617 420.646C24.7359 420.888 8.9005 404.891 9.3418 385.368L17.085 42.8293C17.5087 24.0842 32.8263 9.10884 51.5762 9.10864Z" stroke="white" stroke-opacity="0.2" stroke-width="3"/>
</svg>
