<svg width="554" height="430" viewBox="0 0 554 430" fill="none" xmlns="http://www.w3.org/2000/svg">
<path d="M546.993 395.199C547.384 409.691 532.253 421.545 513.657 421.412C340.299 420.18 229.016 423.596 55.0301 422.317C37.4682 422.188 23.1393 411.274 22.5546 397.593L7.01867 34.0864C6.38612 19.2811 21.9445 7.14292 40.9398 7.62236L505.725 19.3578C523.19 19.7988 537.161 30.8129 537.528 44.4303L546.993 395.199Z" fill="#027278"/>
<path d="M510.502 9.63598C529.749 9.35809 545.5 24.8844 545.5 44.1331L545.5 377.968C545.5 396.791 530.411 412.141 511.591 412.463L45.2187 420.453C25.3464 420.794 9.29688 404.317 10.1602 384.46L24.7373 49.1633C25.5312 30.9023 40.4297 16.4295 58.7061 16.1653L510.502 9.63598Z" stroke="white" stroke-opacity="0.2" stroke-width="3"/>
</svg>
