<svg width="24" height="24" viewBox="0 0 24 24" fill="none" xmlns="http://www.w3.org/2000/svg">
<path d="M4.83551 9.89752C5.8685 10.9685 6.92573 12.0163 7.98514 13.0602L9.57089 14.6313L9.96588 15.0264L10.0853 15.1426C10.1312 15.1853 10.1785 15.2261 10.2266 15.2666C10.3237 15.3461 10.4253 15.4168 10.531 15.4819C10.9538 15.7428 11.4451 15.889 11.9373 15.8955C12.4541 15.9034 12.9703 15.7612 13.412 15.4907C13.5212 15.4217 13.6283 15.3459 13.7277 15.2649C13.7773 15.222 13.827 15.179 13.8729 15.1345L13.9939 15.0121L14.4014 14.5947L16.0329 12.9259L19.291 9.58184C19.6488 9.21527 20.3186 8.81227 19.8235 8.25886C19.2886 7.6625 18.8896 8.39075 18.5435 8.73269C17.4609 9.80125 16.3959 10.8857 15.3351 11.9772L13.7456 13.6159L13.3482 14.0252L13.1495 14.2287C13.0937 14.2861 13.04 14.3346 12.9804 14.3814C12.7436 14.5668 12.458 14.6867 12.1614 14.717C11.8658 14.7496 11.5616 14.6963 11.2929 14.5668C11.1596 14.5015 11.0346 14.418 10.9236 14.3163C10.8266 14.2287 10.6776 14.0618 10.5518 13.9314C10.0295 13.3798 9.5087 12.8223 8.99647 12.2604C7.96885 11.1344 6.96765 9.98646 6.00222 8.80271C5.55119 8.24929 4.88757 7.45734 4.20229 8.19434C3.63801 8.79864 4.38309 9.42756 4.83789 9.89813L4.83551 9.89752Z" fill="white"/>
</svg>
