<svg width="566" height="531" viewBox="0 0 566 531" fill="none" xmlns="http://www.w3.org/2000/svg">
<path d="M37.8444 514.677C17.5403 514.454 1.43794 497.493 2.26986 477.205L20.1976 39.993C20.9886 20.7007 36.8588 5.46796 56.1673 5.46796L529.25 5.46795C549.132 5.46795 565.25 21.5857 565.25 41.468L565.25 484.071C565.25 504.107 548.89 520.288 528.855 520.068L37.8444 514.677Z" fill="#005867"/>
<path d="M37.5635 523.38L530.11 521.806C549.121 521.745 564.5 506.316 564.5 487.306L564.5 37.1504C564.5 18.0405 548.966 2.57085 529.856 2.65039L55.0596 4.63086C36.591 4.70789 21.4579 19.3152 20.7295 37.7695L2.98047 487.52C2.20634 507.135 17.9328 523.442 37.5635 523.38Z" stroke="#0C0902" stroke-opacity="0.21" stroke-width="3"/>
</svg>
