<svg width="566" height="525" viewBox="0 0 566 525" fill="none" xmlns="http://www.w3.org/2000/svg">
<path d="M520.679 13.516C539.875 14.0278 555.29 29.5163 555.711 48.7145L564.967 471.085C565.4 490.876 549.775 507.303 529.988 507.86L38.1736 521.693C17.4888 522.274 0.572586 505.34 1.17678 484.656L14.2842 35.934C14.8637 16.096 31.389 0.468913 51.2284 0.997938L520.679 13.516Z" fill="#00646A"/>
<path d="M36.5654 521.941L528.813 513.872C548.295 513.552 563.648 497.172 562.707 477.71L542.129 52.0769C541.262 34.1545 526.803 19.888 508.87 19.2634L37.2012 2.83765C17.6885 2.15811 1.5001 17.7917 1.50001 37.3162L1.5 487.446C1.50016 506.721 17.2931 522.257 36.5654 521.941Z" stroke="#0C0902" stroke-opacity="0.21" stroke-width="3"/>
</svg>
