<svg width="619" height="316" viewBox="0 0 619 316" fill="none" xmlns="http://www.w3.org/2000/svg">
<path d="M39.1548 315.569L558.675 307.774C579.029 307.476 595.033 298.642 594.357 288.078C593.723 278.166 614.702 52.1615 617.29 24.3389C617.465 22.463 617.604 20.5532 616.987 18.7732C613.944 10.0003 599.378 3.33067 581.728 3.10693L39.0142 0.582415C18.3784 0.320818 1.37764 8.93271 1.37764 19.6475L1.37763 296.506C1.37777 307.249 18.466 315.872 39.1548 315.569Z" fill="#0C0902" fill-opacity="0.28"/>
<path d="M37.0703 2.05615L573.685 5.99854C593.437 6.14368 608.908 23.0322 607.325 42.7212L588.132 281.488C586.696 299.354 571.636 313.037 553.714 312.759L42.0371 304.82C23.7906 304.537 9.02179 289.899 8.5752 271.656L2.83008 36.8862C2.36051 17.6906 17.8694 1.91508 37.0703 2.05615Z" stroke="white" stroke-opacity="0.15" stroke-width="4"/>
</svg>
