<svg width="1440" height="952" viewBox="0 0 1440 952" fill="none" xmlns="http://www.w3.org/2000/svg">
<g clip-path="url(#clip0_10780_63915)">
<path d="M1143.25 493.045C1140.2 497.873 1136.07 501.777 1131.98 505.695C1129.19 501.199 1127.09 495.905 1126.32 490.692C1125.97 488.271 1126.2 485.927 1127.16 483.653C1127.81 482.089 1128.64 479.653 1130.84 482.446C1131.8 483.667 1131.48 486.531 1131.42 487.85C1131.3 490.649 1135.29 491.275 1135.79 488.44C1136.18 486.25 1137.32 484.534 1138.69 482.834C1139.96 481.244 1142.7 477.752 1145.09 478.588C1150.26 480.398 1144.94 490.383 1143.25 493.045ZM1141.77 474.438C1139.12 475.418 1136.63 477.678 1134.75 480.343C1134.1 478.859 1133.08 477.598 1131.51 476.822C1127.82 474.996 1124.79 478.391 1123.43 481.493C1119.57 490.29 1124.2 500.84 1129.46 508.122C1129.06 508.514 1128.66 508.908 1128.27 509.305C1126.7 510.89 1129.24 513.326 1130.96 512.061C1136.46 507.994 1141.8 503.131 1145.75 497.512C1149.05 492.826 1152.75 486.114 1151.36 480.2C1150.36 475.905 1146.15 472.818 1141.77 474.438Z" fill="#221E1F" fill-opacity="0.12"/>
<path d="M585.611 475.469C581.735 473.271 577.621 471.069 574.52 467.806C571.663 464.8 568.546 458.403 573.325 455.542C578.324 452.552 583.208 457.612 586.812 460.468C587.706 461.177 588.884 460.915 589.611 460.125C593.351 456.058 594.337 450.285 600.271 448.255C603.215 447.247 606.32 448.762 607.96 451.303C609.529 453.735 609.197 456.762 608.342 459.389C605.731 467.411 599.483 473.796 594.915 480.851C591.825 479.038 588.73 477.236 585.611 475.469ZM612.62 452.017C611.066 446.824 605.493 442.938 600.07 444.261C597.01 445.007 594.424 447.103 592.279 449.322C590.338 451.33 589.268 453.871 587.72 456.094C583.632 452.838 579.25 449.577 573.7 451.144C568.529 452.604 566.134 457.673 567.283 462.73C568.556 468.335 573.131 472.412 577.82 475.328C582.762 478.402 587.99 481.052 593.214 483.667C593.211 483.673 593.208 483.678 593.205 483.683C592.207 485.483 594.979 486.866 596.206 485.437C596.26 485.374 596.314 485.31 596.368 485.246C597.426 485.778 598.483 486.311 599.534 486.849C600.946 487.572 602.354 485.227 600.961 484.407C600.088 483.893 599.215 483.379 598.343 482.864C601.866 478.49 605.126 473.77 608.036 469.03C611.075 464.081 614.411 458 612.62 452.017Z" fill="#221E1F" fill-opacity="0.12"/>
<path d="M865.131 476.622C861.357 482.587 857.559 488.542 853.872 494.56C848.902 488.977 843.497 482.722 841.848 475.262C841.076 471.77 840.906 466.227 844.138 463.757C849.579 459.597 852.562 468.645 853.581 472.262C854.133 474.225 857.081 474.002 857.775 472.295C858.987 469.312 864.588 459.18 868.088 466.2C869.859 469.755 866.93 473.78 865.131 476.622ZM872.986 466.132C871.943 461.765 868.08 458.775 863.531 459.615C859.981 460.27 857.647 462.69 855.939 465.585C854.237 462.012 851.64 458.937 847.353 458.535C842.607 458.092 839.194 461.967 837.971 466.182C834.457 478.29 844.527 489.232 852.261 497.06C852.28 497.077 852.3 497.095 852.319 497.112C852.224 497.27 852.127 497.425 852.032 497.582C850.861 499.522 853.496 501.76 854.89 499.815C859.349 493.595 863.707 487.282 867.991 480.937C870.932 476.582 874.304 471.655 872.986 466.132Z" fill="#221E1F" fill-opacity="0.12"/>
<path d="M884.428 150.413C883.042 154.003 880.978 157.401 878.735 160.516C876.247 163.973 873.284 167.258 869.835 169.786C865.927 168.266 862.259 166.006 859.121 163.231C856.31 160.746 853.265 157.473 852.06 154.063C851.11 151.368 850.892 148.713 851.968 146.116C851.987 146.083 852.086 145.871 852.111 145.823C852.197 145.663 852.279 145.498 852.37 145.341C852.49 145.133 852.786 144.678 852.809 144.646C852.825 144.623 853.198 144.191 853.355 144.031C853.591 143.791 853.986 143.451 854.024 143.421C855.195 142.563 856.425 142.121 857.874 141.966C861.604 141.561 865.805 144.316 866.192 148.231C866.286 149.188 866.796 150.043 867.776 150.311C868.649 150.551 869.797 150.168 870.213 149.321C871.886 145.906 873.673 141.991 877.2 140.133C879.984 138.668 883.31 139.128 884.688 141.998C885.892 144.503 885.441 147.788 884.428 150.413ZM888.415 139.818C886.352 135.663 881.489 134.118 877.203 135.486C873.278 136.738 870.696 139.691 868.673 143.048C867.008 140.491 864.37 138.583 861.285 137.896C857.184 136.983 852.414 138.323 849.72 141.638C847.199 144.741 846.602 148.743 847.231 152.608C847.966 157.123 850.78 160.956 853.879 164.183C858.129 168.608 863.412 171.991 869.152 174.126C869.639 174.308 870.16 174.236 870.615 174.011C871.015 174.036 871.415 173.946 871.751 173.706C875.661 170.903 878.938 167.413 881.816 163.573C884.62 159.833 887.066 155.698 888.689 151.301C890.029 147.671 890.159 143.333 888.415 139.818Z" fill="#221E1F" fill-opacity="0.12"/>
<path opacity="0.74" d="M-16.2927 62.4915C-12.815 58.3976 -8.46679 55.3026 -4.13909 52.1915C-2.13 56.7418 -0.867781 61.9445 -0.838622 66.8972C-0.825259 69.1965 -1.35259 71.3479 -2.53698 73.3402C-3.35153 74.7103 -4.439 76.8691 -6.11945 73.9822C-6.85467 72.7194 -6.18942 70.095 -5.96068 68.8744C-5.47546 66.2864 -9.10926 65.1812 -9.94624 67.7544C-10.5935 69.7428 -11.8861 71.1895 -13.3791 72.5936C-14.774 73.9067 -17.7744 76.8002 -19.8897 75.7091C-24.4724 73.3465 -18.2093 64.7485 -16.2927 62.4915ZM-17.3445 80.0059C-14.7496 79.4403 -12.1407 77.6615 -10.0351 75.4279C-9.62369 76.8942 -8.84178 78.2013 -7.48402 79.1292C-4.29128 81.311 -1.02054 78.5475 0.651595 75.8387C5.39533 68.1547 2.46759 57.7283 -1.48195 50.2616C-1.05803 49.9486 -0.635549 49.634 -0.216591 49.3158C1.4538 48.0462 -0.598928 45.4459 -2.35847 46.3991C-8.01653 49.4647 -13.6164 53.2931 -18.0354 58.0066C-21.7202 61.9366 -26.0402 67.701 -25.5222 73.3869C-25.1463 77.5174 -21.6337 80.9413 -17.3445 80.0059Z" fill="#221E1F" fill-opacity="0.12"/>
<path opacity="0.88" d="M254.616 80.8344C251.348 82.867 247.655 84.3385 243.989 85.4764C239.921 86.7402 235.578 87.5805 231.303 87.5236C229.096 83.9576 227.527 79.9454 226.691 75.8408C225.941 72.1643 225.479 67.718 226.569 64.2699C227.432 61.5454 228.856 59.294 231.278 57.8674C231.313 57.8527 231.52 57.7423 231.568 57.7194C231.734 57.6438 231.898 57.5609 232.066 57.4904C232.286 57.3964 232.796 57.2112 232.834 57.1991C232.861 57.1912 233.419 57.0699 233.641 57.0369C233.974 56.9872 234.494 56.9532 234.542 56.9524C235.993 56.9718 237.242 57.359 238.492 58.1069C241.715 60.0282 243.412 64.7571 241.365 68.1163C240.864 68.938 240.757 69.9277 241.378 70.7309C241.931 71.4478 243.078 71.8333 243.92 71.4068C247.312 69.6866 251.095 67.6349 255.03 68.2742C258.135 68.7797 260.514 71.1486 259.888 74.2702C259.342 76.9956 257.004 79.3475 254.616 80.8344ZM264.176 74.772C265.029 70.2123 262.075 66.0519 257.829 64.5644C253.941 63.2028 250.102 64.0068 246.465 65.4706C246.675 62.4259 245.716 59.3151 243.666 56.9093C240.94 53.7126 236.324 51.9123 232.178 52.9384C228.297 53.8987 225.412 56.7364 223.588 60.2017C221.458 64.2499 221.398 69.0039 221.931 73.4463C222.662 79.5382 224.846 85.4188 228.145 90.5788C228.424 91.0171 228.884 91.2731 229.383 91.3674C229.687 91.6279 230.06 91.7964 230.474 91.8074C235.283 91.9224 240.001 91.1073 244.609 89.7721C249.1 88.4727 253.542 86.6425 257.485 84.1074C260.739 82.0148 263.454 78.629 264.176 74.772Z" fill="#221E1F" fill-opacity="0.12"/>
<path opacity="0.74" d="M402.261 62.4762C400.305 67.0135 398.331 71.5466 396.441 76.1108C392.393 72.7954 387.972 69.0626 386.015 64.0855C385.098 61.7554 384.374 57.942 386.338 55.8804C389.644 52.4085 392.697 58.3371 393.798 60.7266C394.395 62.0229 396.408 61.5463 396.701 60.2897C397.213 58.095 399.976 50.4762 403.164 54.9465C404.778 57.2104 403.193 60.3139 402.261 62.4762ZM406.543 54.3635C405.343 51.4581 402.345 49.8138 399.292 50.8927C396.909 51.7344 395.561 53.663 394.697 55.8517C393.129 53.5681 390.997 51.7265 387.989 51.9175C384.659 52.1314 382.724 55.1842 382.34 58.2323C381.236 66.988 389.397 73.4507 395.601 78.0156C395.616 78.0256 395.631 78.0356 395.646 78.0456C395.598 78.1649 395.548 78.2826 395.5 78.402C394.903 79.8715 396.97 81.1298 397.72 79.6325C400.122 74.8438 402.444 70.0022 404.711 65.1463C406.267 61.8133 408.059 58.0372 406.543 54.3635Z" fill="#221E1F" fill-opacity="0.12"/>
<path opacity="0.86" d="M545.416 75.3902C545.918 78.2717 545.903 81.2927 545.661 84.1999C545.394 87.4263 544.749 90.7261 543.492 93.7226C540.351 94.2622 537.077 94.2256 533.947 93.646C531.143 93.1276 527.878 92.1878 525.758 90.4378C524.084 89.0543 522.903 87.4099 522.588 85.2964C522.587 85.2679 522.568 85.0909 522.566 85.0501C522.56 84.912 522.548 84.7727 522.546 84.6342C522.543 84.4523 522.557 84.04 522.56 84.0099C522.562 83.9886 522.635 83.5611 522.675 83.3952C522.735 83.1466 522.859 82.7706 522.872 82.736C523.299 81.7193 523.927 80.9494 524.81 80.2814C527.082 78.5575 530.897 78.7076 532.681 81.1068C533.118 81.6935 533.785 82.0508 534.527 81.8417C535.19 81.6564 535.788 80.9578 535.728 80.2428C535.481 77.3631 535.112 74.1135 536.683 71.5228C537.923 69.4786 540.27 68.4765 542.291 69.8066C544.056 70.9671 545.048 73.2837 545.416 75.3902ZM543.866 66.9277C540.895 65.0284 537.123 65.9253 534.866 68.494C532.799 70.8461 532.273 73.7803 532.269 76.7594C530.183 75.7452 527.718 75.5351 525.439 76.2948C522.411 77.3055 519.828 80.0455 519.37 83.2596C518.942 86.2677 520.12 89.1085 522.043 91.3801C524.289 94.0337 527.622 95.4291 530.904 96.3187C535.405 97.5377 540.171 97.6734 544.746 96.8171C545.134 96.7457 545.446 96.4943 545.654 96.1695C545.924 96.0293 546.149 95.8143 546.275 95.5262C547.725 92.17 548.494 88.6137 548.865 84.9859C549.228 81.452 549.203 77.8007 548.539 74.3006C547.991 71.4113 546.378 68.5348 543.866 66.9277Z" fill="#221E1F" fill-opacity="0.12"/>
<path opacity="0.93" d="M653.721 78.1459C650.324 80.6759 646.916 83.1949 643.557 85.7727C641.974 81.5771 640.291 76.9113 640.972 72.378C641.29 70.2556 642.386 67.1144 644.728 66.4258C648.67 65.2654 648.395 70.9748 648.188 73.2202C648.076 74.4384 649.775 74.9476 650.531 74.1403C651.851 72.7303 657.167 68.259 657.618 72.9436C657.846 75.3159 655.34 76.9406 653.721 78.1459ZM660.376 73.959C660.731 71.2883 659.21 68.7829 656.482 68.2754C654.352 67.8788 652.525 68.7326 650.945 69.9869C650.76 67.6198 649.966 65.3389 647.652 64.1918C645.088 62.9233 642.343 64.36 640.752 66.4581C636.18 72.4845 639.468 80.7793 642.117 86.8268C642.124 86.8407 642.131 86.8547 642.138 86.8686C642.051 86.9363 641.964 87.0024 641.877 87.0702C640.804 87.9051 641.799 89.7251 642.997 88.9352C646.833 86.41 650.631 83.811 654.395 81.178C656.979 79.371 659.927 77.336 660.376 73.959Z" fill="#221E1F" fill-opacity="0.12"/>
<path opacity="0.92" d="M852.484 13.3709C850.672 18.5607 846.299 23.572 842.793 27.7034C842.386 28.1823 841.974 28.6569 841.563 29.1302C834.937 27.7516 826.509 23.4353 824.253 17.0217C822.911 13.2031 824.408 9.45091 828.855 9.12594C833.271 8.80325 835.176 13.5252 836.776 16.8212C837.765 18.8577 840.676 17.1716 839.815 15.1575C837.509 9.75871 841.89 3.41529 847.873 4.06375C852.499 4.56525 853.845 9.47575 852.484 13.3709ZM855.525 5.91815C853.243 0.881307 847.185 -0.568265 842.352 1.66721C839.104 3.16958 836.988 5.91925 836.171 9.05386C834.484 7.06441 832.329 5.65867 829.332 5.66972C824.813 5.68652 820.644 8.75722 820.367 13.44C819.783 23.3182 830.738 29.4069 839.658 31.2825C836.816 34.4491 833.879 37.5353 830.999 40.6668C829.686 42.0942 831.649 44.2111 833.091 42.8671C839.484 36.9128 845.541 30.5279 850.586 23.3738C854.09 18.4073 858.367 12.1912 855.525 5.91815Z" fill="#221E1F" fill-opacity="0.12"/>
<path opacity="0.76" d="M1013.69 66.6228C1006.45 64.3738 999.327 58.5848 993.461 53.949C992.781 53.4111 992.107 52.8668 991.434 52.3222C993.016 43.1188 998.562 31.2901 1007.3 27.8704C1012.5 25.8355 1017.74 27.7195 1018.41 33.836C1019.06 39.9092 1012.64 42.7634 1008.18 45.1292C1005.42 46.59 1007.88 50.5229 1010.62 49.2398C1017.95 45.7994 1026.91 51.5346 1026.3 59.8164C1025.83 66.2197 1019.13 68.311 1013.69 66.6228ZM1024.11 70.4568C1030.95 67.0677 1032.66 58.6445 1029.34 52.0874C1027.11 47.681 1023.22 44.8959 1018.86 43.9203C1021.52 41.4984 1023.35 38.4599 1023.2 34.3274C1022.95 28.0971 1018.52 22.4953 1012.05 22.3393C998.4 22.0098 990.532 37.4095 988.375 49.7995C983.871 46.0322 979.474 42.1322 975.018 38.3106C972.986 36.5686 970.162 39.3776 972.084 41.3024C980.603 49.8303 989.699 57.875 999.806 64.4876C1006.82 69.0789 1015.6 74.6772 1024.11 70.4568Z" fill="#221E1F" fill-opacity="0.12"/>
<path opacity="0.82" d="M1258.26 85.1952C1260.39 89.2579 1262.51 93.3314 1264.7 97.3628C1259.94 98.346 1254.67 99.3554 1249.93 97.8592C1247.71 97.1588 1244.54 95.4532 1244.2 92.8313C1243.62 88.4166 1249.69 89.6778 1252.05 90.2799C1253.34 90.6066 1254.17 88.8749 1253.44 87.9293C1252.15 86.2778 1248.27 79.8317 1253.36 80.1434C1255.93 80.3015 1257.25 83.2586 1258.26 85.1952ZM1254.91 77.3643C1252.11 76.532 1249.17 77.7346 1248.17 80.568C1247.38 82.7797 1247.99 84.8796 1249.06 86.7824C1246.5 86.5794 1243.92 87.0419 1242.3 89.3239C1240.51 91.852 1241.58 95.0326 1243.56 97.0909C1249.23 103.004 1258.66 100.891 1265.58 99.0817C1265.6 99.0769 1265.62 99.0716 1265.63 99.0664C1265.69 99.1712 1265.75 99.2759 1265.8 99.3807C1266.52 100.67 1268.63 99.914 1267.99 98.4976C1265.94 93.9657 1263.8 89.461 1261.62 84.9875C1260.13 81.9163 1258.45 78.4167 1254.91 77.3643Z" fill="#221E1F" fill-opacity="0.12"/>
<path opacity="0.96" d="M1373.72 33.2484C1367.77 35.61 1361.47 36.4337 1355.17 37.2859C1355.6 31.375 1357.19 25.1956 1359.93 19.969C1361.2 17.5426 1362.96 15.5743 1365.32 14.1408C1366.94 13.155 1369.29 11.4922 1369.45 15.4693C1369.51 17.2091 1367.34 19.5979 1366.42 20.7541C1364.46 23.2053 1367.67 26.4006 1369.99 24.1617C1371.78 22.432 1373.95 21.633 1376.31 20.991C1378.51 20.3899 1383.28 19.0242 1384.9 21.3553C1388.4 26.4042 1377 31.9461 1373.72 33.2484ZM1384.62 15.4112C1381.58 14.5547 1377.84 14.9668 1374.37 16.1387C1374.76 14.366 1374.67 12.5536 1373.76 10.8179C1371.62 6.73668 1366.64 7.81435 1363.36 9.72875C1354.07 15.159 1351.32 27.7655 1351.3 37.8299C1350.68 37.922 1350.06 38.0167 1349.44 38.1171C1346.97 38.5183 1347.68 42.4022 1350.06 42.3836C1357.73 42.3235 1365.76 41.4283 1373.05 38.9415C1379.12 36.8682 1386.89 33.2204 1389.52 26.949C1391.44 22.3933 1389.66 16.8263 1384.62 15.4112Z" fill="#221E1F" fill-opacity="0.12"/>
<path opacity="0.7" d="M20.4898 188.827C22.3175 182.964 24.1685 177.105 25.9123 171.218C31.3457 174.79 37.2959 178.829 40.3614 184.727C41.7968 187.488 43.1877 192.108 41.028 194.911C37.3926 199.632 32.8485 192.701 31.1777 189.89C30.2713 188.365 27.8442 189.216 27.6455 190.807C27.2985 193.586 24.8731 203.363 20.3517 198.251C18.0626 195.663 19.6179 191.621 20.4898 188.827ZM16.2509 199.411C18.1108 202.846 22.0302 204.489 25.6634 202.759C28.4998 201.409 29.9156 198.85 30.6997 196.032C32.9344 198.651 35.8092 200.651 39.5018 200.024C43.5902 199.327 45.5858 195.302 45.6645 191.484C45.8912 180.519 34.9644 173.591 26.7026 168.754C26.6829 168.744 26.6626 168.733 26.6424 168.723C26.687 168.569 26.7332 168.417 26.7778 168.263C27.3248 166.37 24.6064 165.083 23.8736 167.031C21.5264 173.262 19.2857 179.548 17.1146 185.845C15.6233 190.167 13.8991 195.067 16.2509 199.411Z" fill="#221E1F" fill-opacity="0.12"/>
<path opacity="0.77" d="M264.994 76.4453C269.033 77.0215 273.034 78.3426 276.786 79.9165C280.95 81.662 285.05 83.939 288.483 86.8983C287.845 91.2973 286.385 95.6244 284.267 99.5269C282.371 103.023 279.717 106.949 276.482 109.006C273.926 110.63 271.235 111.488 268.296 110.996C268.258 110.984 268.015 110.933 267.96 110.919C267.774 110.867 267.584 110.823 267.399 110.765C267.157 110.692 266.616 110.494 266.577 110.478C266.55 110.466 266.014 110.185 265.812 110.06C265.508 109.874 265.062 109.547 265.022 109.515C263.857 108.511 263.107 107.345 262.601 105.886C261.294 102.13 263.137 97.1336 267.089 95.8012C268.055 95.475 268.817 94.7444 268.859 93.669C268.899 92.7103 268.23 91.6156 267.256 91.388C263.329 90.4739 258.86 89.5625 256.1 86.3624C253.923 83.8363 253.606 80.2916 256.241 78.1835C258.541 76.3424 262.042 76.0252 264.994 76.4453ZM253.101 74.8542C249.301 77.9755 248.865 83.3663 251.3 87.4674C253.529 91.2221 257.194 93.1851 261.144 94.4742C258.9 96.804 257.559 99.9832 257.584 103.334C257.62 107.787 260.141 112.393 264.207 114.385C268.013 116.25 272.289 115.911 276.131 114.34C280.619 112.504 283.906 108.685 286.501 104.715C290.058 99.2697 292.292 93.0069 293.128 86.5686C293.2 86.0229 293.001 85.5016 292.66 85.085C292.591 84.6662 292.403 84.275 292.074 83.9844C288.248 80.6143 283.862 78.0619 279.209 76.0058C274.678 74.0016 269.824 72.461 264.895 71.833C260.826 71.3146 256.315 72.2146 253.101 74.8542Z" fill="#221E1F" fill-opacity="0.12"/>
<path opacity="0.89" d="M469.818 78.4135C476.79 79.3003 484.219 83.4372 490.318 86.7237C491.025 87.1051 491.728 87.4933 492.429 87.8821C492.466 96.535 489.309 108.221 481.888 112.747C477.469 115.441 472.379 114.566 470.791 109.091C469.213 103.655 474.612 100.018 478.308 97.1398C480.592 95.3626 477.71 92.1704 475.42 93.7815C469.282 98.1009 460.184 94.3087 459.405 86.6538C458.802 80.7352 464.586 77.7477 469.818 78.4135ZM459.69 76.592C453.998 80.7845 453.795 88.7455 457.876 94.1957C460.618 97.8581 464.619 99.7732 468.756 99.9616C466.716 102.6 465.531 105.668 466.342 109.413C467.564 115.06 472.512 119.458 478.442 118.559C490.95 116.664 495.652 101.345 495.627 89.6918C500.342 92.405 504.982 95.2564 509.664 98.0266C511.798 99.2893 513.924 96.2715 511.859 94.8245C502.714 88.4131 493.119 82.5357 482.832 78.1279C475.69 75.0672 466.779 71.371 459.69 76.592Z" fill="#221E1F" fill-opacity="0.12"/>
<path opacity="0.96" d="M603.051 180.382C598.026 177.783 593.82 174.055 589.602 170.351C593.795 167.211 598.835 164.683 603.911 163.48C606.267 162.921 608.6 162.953 610.925 163.696C612.524 164.207 614.997 164.812 612.433 167.22C611.311 168.274 608.46 168.213 607.153 168.267C604.383 168.383 604.109 172.374 606.948 172.623C609.142 172.816 610.933 173.8 612.728 174.999C614.406 176.119 618.086 178.513 617.467 180.942C616.128 186.205 605.821 181.814 603.051 180.382ZM621.274 177.312C620.078 174.783 617.635 172.528 614.844 170.896C616.251 170.126 617.407 169.014 618.038 167.401C619.52 163.608 615.91 160.906 612.734 159.832C603.724 156.784 593.719 162.259 586.992 168.081C586.57 167.72 586.147 167.361 585.722 167.007C584.023 165.593 581.841 168.316 583.236 169.896C587.722 174.976 592.978 179.815 598.862 183.233C603.768 186.084 610.706 189.151 616.419 187.272C620.568 185.908 623.25 181.492 621.274 177.312Z" fill="#221E1F" fill-opacity="0.12"/>
<path opacity="0.81" d="M718.554 165.123C722.614 167.685 726.02 172.391 728.847 176.187C729.175 176.627 729.498 177.07 729.82 177.514C727.345 182.882 722.015 189.206 716.114 189.866C712.6 190.258 709.701 188.247 710.299 184.398C710.892 180.577 715.284 179.883 718.404 179.169C720.331 178.728 719.468 175.919 717.585 176.255C712.537 177.158 708 172.183 709.727 167.218C711.063 163.38 715.506 163.2 718.554 165.123ZM712.809 161.071C708.074 162.023 705.65 166.894 706.603 171.447C707.243 174.506 709.168 176.847 711.675 178.158C709.65 179.203 708.03 180.76 707.451 183.313C706.577 187.162 708.371 191.314 712.302 192.469C720.594 194.907 727.928 186.78 731.277 179.557C733.414 182.599 735.463 185.704 737.562 188.771C738.519 190.169 740.706 188.914 739.846 187.422C736.034 180.812 731.791 174.403 726.694 168.703C723.155 164.746 718.706 159.885 712.809 161.071Z" fill="#221E1F" fill-opacity="0.12"/>
<path opacity="0.77" d="M963.67 220.732C960.762 225.156 957.836 229.572 954.992 234.036C951.339 229.785 947.368 225.023 946.229 219.408C945.695 216.779 945.641 212.62 948.096 210.81C952.231 207.762 954.349 214.586 955.066 217.312C955.455 218.79 957.668 218.662 958.211 217.391C959.159 215.17 963.492 207.645 966.024 212.955C967.306 215.644 965.056 218.624 963.67 220.732ZM969.698 212.969C968.973 209.68 966.115 207.387 962.693 207.958C960.022 208.402 958.241 210.187 956.922 212.335C955.692 209.634 953.785 207.294 950.576 206.936C947.022 206.542 944.412 209.403 943.44 212.548C940.646 221.581 948.055 229.919 953.752 235.89C953.766 235.903 953.78 235.916 953.794 235.93C953.721 236.047 953.647 236.162 953.573 236.278C952.67 237.718 954.617 239.43 955.687 237.99C959.113 233.384 962.463 228.707 965.758 224.005C968.021 220.778 970.614 217.127 969.698 212.969Z" fill="#221E1F" fill-opacity="0.12"/>
<path opacity="0.73" d="M964.933 232.09C961.488 232.444 957.92 232.178 954.506 231.652C950.716 231.069 946.871 230.035 943.436 228.303C943.058 224.548 943.371 220.683 944.314 217.033C945.159 213.763 946.538 209.984 948.781 207.625C950.554 205.761 952.594 204.502 955.116 204.304C955.15 204.306 955.361 204.298 955.409 204.298C955.573 204.303 955.738 204.3 955.902 204.31C956.117 204.32 956.603 204.372 956.639 204.377C956.663 204.381 957.162 204.503 957.355 204.564C957.644 204.655 958.078 204.833 958.118 204.851C959.283 205.439 960.141 206.245 960.857 207.344C962.706 210.169 962.214 214.664 959.232 216.574C958.503 217.041 958.026 217.799 958.211 218.694C958.375 219.492 959.151 220.256 960.001 220.244C963.423 220.19 967.292 220.023 970.223 222.093C972.536 223.727 973.526 226.582 971.787 228.86C970.271 230.849 967.452 231.829 964.933 232.09ZM975.058 230.957C977.547 227.606 976.799 223.075 973.951 220.196C971.343 217.561 967.921 216.696 964.402 216.446C965.772 214.066 966.224 211.171 965.515 208.416C964.571 204.755 961.547 201.477 957.788 200.671C954.27 199.917 950.817 201.074 947.975 203.158C944.654 205.592 942.731 209.414 941.409 213.218C939.597 218.434 939.043 224.053 939.676 229.528C939.729 229.993 940 230.381 940.366 230.655C940.51 230.985 940.745 231.269 941.075 231.441C944.92 233.431 949.058 234.633 953.313 235.371C957.457 236.092 961.773 236.364 965.962 235.869C969.421 235.46 972.952 233.792 975.058 230.957Z" fill="#221E1F" fill-opacity="0.12"/>
<path opacity="0.77" d="M1120.42 192.974C1122.4 188.44 1124.35 183.643 1127.59 179.841C1130.58 176.339 1137.28 172.155 1140.99 177.1C1144.87 182.27 1139.85 188.25 1137.12 192.559C1136.44 193.629 1136.87 194.898 1137.82 195.609C1142.75 199.266 1149.23 199.685 1152.16 206C1153.62 209.133 1152.31 212.736 1149.69 214.841C1147.19 216.855 1143.81 216.841 1140.81 216.202C1131.65 214.25 1123.88 208.093 1115.56 203.869C1117.2 200.248 1118.83 196.622 1120.42 192.974ZM1149.44 220.069C1155 217.75 1158.64 211.148 1156.55 205.314C1155.37 202.023 1152.76 199.411 1150.06 197.301C1147.62 195.391 1144.69 194.505 1142.05 193.054C1145.17 188.163 1148.26 182.948 1145.89 177.003C1143.68 171.464 1137.81 169.408 1132.36 171.263C1126.32 173.319 1122.35 178.842 1119.67 184.357C1116.85 190.17 1114.53 196.248 1112.25 202.318C1112.25 202.316 1112.24 202.313 1112.23 202.31C1110.13 201.418 1108.93 204.638 1110.65 205.827C1110.72 205.879 1110.8 205.931 1110.87 205.983C1110.41 207.213 1109.94 208.442 1109.47 209.665C1108.84 211.307 1111.59 212.589 1112.33 210.956C1112.8 209.933 1113.27 208.91 1113.73 207.887C1118.97 211.269 1124.56 214.32 1130.13 216.983C1135.95 219.763 1143.05 222.74 1149.44 220.069Z" fill="#221E1F" fill-opacity="0.12"/>
<path opacity="0.77" d="M1312.09 169.762C1306.34 169.325 1300.9 167.499 1295.46 165.702C1298.15 161.082 1301.88 156.699 1306.16 153.546C1308.15 152.082 1310.36 151.182 1312.84 150.953C1314.54 150.796 1317.11 150.378 1315.66 153.662C1315.02 155.098 1312.32 156.178 1311.12 156.75C1308.56 157.962 1309.9 161.819 1312.66 160.921C1314.8 160.228 1316.87 160.438 1319.04 160.849C1321.06 161.233 1325.47 162.013 1325.86 164.541C1326.7 170.017 1315.27 170.003 1312.09 169.762ZM1327.98 159.615C1325.85 157.716 1322.66 156.572 1319.39 156.152C1320.4 154.869 1321.04 153.364 1320.99 151.597C1320.87 147.444 1316.41 146.346 1312.99 146.603C1303.32 147.333 1296.11 156.463 1292.11 164.611C1291.57 164.441 1291.03 164.272 1290.49 164.109C1288.33 163.459 1287.37 166.885 1289.31 167.813C1295.54 170.795 1302.41 173.245 1309.3 174.109C1315.04 174.83 1322.78 174.945 1327.39 170.904C1330.75 167.968 1331.5 162.753 1327.98 159.615Z" fill="#221E1F" fill-opacity="0.12"/>
<path opacity="0.76" d="M76.3531 289.001C72.6534 287.024 69.2518 284.34 66.1797 281.5C62.7697 278.349 59.6093 274.707 57.333 270.64C59.4966 266.613 62.4289 262.946 65.8479 259.92C68.9098 257.208 72.8548 254.348 76.7039 253.498C79.7459 252.828 82.6472 252.945 85.3144 254.454C85.347 254.479 85.5639 254.614 85.6119 254.647C85.7735 254.762 85.9412 254.872 86.0994 254.992C86.3081 255.149 86.761 255.529 86.7931 255.559C86.8152 255.58 87.2336 256.04 87.3858 256.232C87.6141 256.519 87.9296 256.991 87.9569 257.037C88.7292 258.417 89.0444 259.807 89.0197 261.394C88.9624 265.484 85.4237 269.663 81.1368 269.561C80.0883 269.537 79.0956 269.975 78.6761 270.999C78.3005 271.911 78.5618 273.204 79.4234 273.767C82.8957 276.031 86.894 278.484 88.435 282.546C89.6501 285.753 88.7107 289.29 85.4226 290.4C82.5525 291.37 79.0585 290.446 76.3531 289.001ZM87.286 294.721C92.0552 293.042 94.3727 287.986 93.4626 283.167C92.6289 278.755 89.7777 275.569 86.414 272.934C89.4021 271.472 91.8162 268.872 92.9698 265.625C94.5018 261.31 93.6857 255.972 90.4571 252.617C87.4356 249.477 83.1845 248.3 78.9195 248.467C73.9372 248.663 69.4172 251.197 65.5138 254.121C60.1619 258.131 55.8007 263.397 52.7283 269.325C52.4663 269.826 52.4755 270.4 52.6584 270.923C52.5783 271.352 52.6226 271.796 52.8375 272.192C55.3501 276.795 58.6905 280.803 62.4627 284.426C66.1364 287.957 70.285 291.153 74.8269 293.493C78.5761 295.425 83.2515 296.142 87.286 294.721Z" fill="#221E1F" fill-opacity="0.12"/>
<path opacity="0.78" d="M150.279 262.893C153.057 260.956 156.234 259.493 159.403 258.324C162.92 257.026 166.698 256.088 170.458 255.941C172.561 258.973 174.125 262.427 175.049 265.995C175.877 269.191 176.488 273.078 175.689 276.158C175.056 278.592 173.909 280.636 171.845 282.001C171.815 282.016 171.639 282.122 171.597 282.145C171.455 282.219 171.315 282.299 171.17 282.369C170.981 282.462 170.541 282.648 170.509 282.66C170.485 282.668 170.001 282.801 169.807 282.84C169.517 282.899 169.062 282.953 169.019 282.956C167.743 283.005 166.628 282.723 165.495 282.123C162.574 280.583 160.864 276.505 162.509 273.459C162.911 272.714 162.96 271.839 162.377 271.162C161.858 270.558 160.832 270.272 160.112 270.685C157.21 272.353 153.981 274.33 150.493 273.95C147.741 273.649 145.542 271.676 145.948 268.904C146.302 266.484 148.248 264.31 150.279 262.893ZM142.156 268.661C141.617 272.707 144.404 276.227 148.204 277.339C151.684 278.356 155.021 277.473 158.149 276.019C158.105 278.704 159.091 281.394 161.003 283.414C163.546 286.097 167.685 287.467 171.282 286.374C174.648 285.352 177.053 282.725 178.496 279.596C180.181 275.94 180.015 271.76 179.342 267.88C178.419 262.56 176.229 257.493 173.092 253.11C172.827 252.738 172.411 252.534 171.968 252.474C171.689 252.26 171.353 252.129 170.989 252.138C166.757 252.258 162.649 253.192 158.661 254.578C154.774 255.926 150.955 257.739 147.607 260.149C144.843 262.138 142.614 265.238 142.156 268.661Z" fill="#221E1F" fill-opacity="0.12"/>
<path opacity="0.72" d="M377.767 242.152C378.073 245.911 377.451 249.607 376.847 253.3C373.591 252.038 370.381 250.082 367.908 247.638C366.759 246.503 365.953 245.173 365.552 243.596C365.276 242.511 364.744 240.899 367.012 241.498C368.004 241.76 368.976 243.393 369.469 244.113C370.513 245.639 372.866 244.383 372.004 242.69C371.338 241.382 371.261 240.022 371.305 238.583C371.346 237.239 371.399 234.313 372.991 233.804C376.439 232.702 377.599 240.08 377.767 242.152ZM369.594 232.934C368.587 234.504 368.175 236.682 368.238 238.836C367.306 238.313 366.269 238.052 365.134 238.265C362.466 238.767 362.214 241.763 362.728 243.938C364.188 250.108 370.818 253.831 376.486 255.577C376.431 255.943 376.378 256.309 376.328 256.675C376.129 258.135 378.439 258.407 378.839 257.06C380.126 252.729 381.006 248.048 380.859 243.514C380.738 239.733 380.021 234.726 376.94 232.161C374.703 230.297 371.259 230.341 369.594 232.934Z" fill="#221E1F" fill-opacity="0.12"/>
<path opacity="0.93" d="M629.564 307.566C626.249 308.263 622.753 308.369 619.379 308.206C615.635 308.027 611.79 307.415 608.272 306.081C607.52 302.468 607.43 298.678 607.975 295.032C608.461 291.766 609.417 287.95 611.356 285.427C612.89 283.434 614.745 282 617.178 281.55C617.211 281.548 617.415 281.519 617.462 281.515C617.621 281.502 617.782 281.483 617.942 281.475C618.153 281.464 618.63 281.464 618.665 281.466C618.69 281.467 619.188 281.535 619.381 281.574C619.671 281.633 620.112 281.762 620.152 281.776C621.346 282.228 622.262 282.925 623.071 283.919C625.157 286.478 625.138 290.899 622.434 293.061C621.772 293.59 621.386 294.376 621.658 295.227C621.899 295.986 622.732 296.65 623.557 296.551C626.879 296.149 630.625 295.591 633.686 297.304C636.102 298.657 637.356 301.332 635.899 303.725C634.627 305.814 631.986 307.056 629.564 307.566ZM639.294 305.43C641.371 301.917 640.181 297.587 637.117 295.079C634.312 292.783 630.895 292.292 627.448 292.408C628.537 289.953 628.681 287.093 627.709 284.486C626.417 281.022 623.142 278.144 619.405 277.745C615.906 277.371 612.667 278.849 610.116 281.166C607.136 283.872 605.656 287.785 604.759 291.619C603.53 296.877 603.566 302.397 604.741 307.657C604.84 308.103 605.143 308.454 605.528 308.682C605.701 308.989 605.959 309.24 606.297 309.374C610.239 310.916 614.386 311.662 618.599 311.945C622.703 312.222 626.927 312.046 630.951 311.136C634.272 310.385 637.535 308.402 639.294 305.43Z" fill="#221E1F" fill-opacity="0.12"/>
<path opacity="0.99" d="M686.967 246.8C680.757 246.657 674.544 246.491 668.333 246.437C670.292 240.158 672.561 233.246 677.44 228.621C679.725 226.456 683.828 223.816 687.156 225.134C692.76 227.352 687.288 233.703 685.021 236.111C683.791 237.418 685.295 239.54 686.897 239.29C689.696 238.852 699.878 238.485 696.169 244.306C694.29 247.254 689.926 246.869 686.967 246.8ZM698.44 247.97C701.261 245.204 701.766 240.935 699.071 237.885C696.967 235.504 694.085 234.84 691.126 234.864C693.05 231.961 694.192 228.608 692.553 225.192C690.736 221.411 686.266 220.593 682.532 221.581C671.807 224.418 668.117 236.974 665.718 246.355C665.713 246.377 665.709 246.4 665.704 246.422C665.542 246.422 665.382 246.419 665.22 246.419C663.226 246.415 662.732 249.417 664.831 249.586C671.544 250.131 678.281 250.557 685.008 250.913C689.627 251.158 694.872 251.468 698.44 247.97Z" fill="#221E1F" fill-opacity="0.12"/>
<path opacity="0.83" d="M966.084 312.883C966.407 316.022 966.164 319.273 965.685 322.384C965.154 325.836 964.213 329.339 962.634 332.47C959.212 332.814 955.691 332.529 952.366 331.669C949.387 330.9 945.943 329.643 943.794 327.6C942.096 325.985 940.949 324.126 940.768 321.827C940.77 321.797 940.763 321.605 940.763 321.561C940.767 321.411 940.765 321.261 940.773 321.111C940.783 320.915 940.83 320.473 940.835 320.441C940.839 320.418 940.95 319.963 941.005 319.788C941.088 319.525 941.25 319.129 941.267 319.093C941.803 318.031 942.537 317.249 943.538 316.597C946.112 314.912 950.208 315.361 951.947 318.078C952.373 318.742 953.064 319.177 953.879 319.008C954.606 318.858 955.303 318.151 955.291 317.377C955.243 314.259 955.09 310.734 956.976 308.063C958.464 305.957 961.066 305.055 963.141 306.638C964.954 308.02 965.847 310.588 966.084 312.883ZM965.052 303.658C961.999 301.39 957.871 302.072 955.248 304.667C952.847 307.043 952.059 310.161 951.831 313.368C949.662 312.119 947.025 311.707 944.515 312.353C941.179 313.213 938.193 315.968 937.459 319.393C936.771 322.598 937.826 325.745 939.724 328.334C941.942 331.36 945.424 333.112 948.89 334.317C953.642 335.968 958.761 336.472 963.751 335.895C964.174 335.847 964.528 335.6 964.777 335.266C965.078 335.136 965.336 334.921 965.493 334.621C967.307 331.117 968.402 327.348 969.074 323.471C969.731 319.695 969.979 315.763 969.527 311.946C969.155 308.794 967.635 305.577 965.052 303.658Z" fill="#221E1F" fill-opacity="0.12"/>
<path opacity="0.88" d="M1102.23 284.907C1100 289.238 1095.54 293.096 1091.95 296.288C1091.54 296.658 1091.12 297.024 1090.7 297.389C1085.05 295.362 1078.19 290.535 1077 284.629C1076.3 281.113 1078.07 278.005 1082.02 278.269C1085.93 278.53 1087.02 282.908 1088.02 285.998C1088.63 287.907 1091.4 286.786 1090.89 284.913C1089.53 279.891 1094.16 274.865 1099.33 276.172C1103.32 277.183 1103.9 281.657 1102.23 284.907ZM1105.81 278.743C1104.43 274.042 1099.29 272.023 1094.78 273.388C1091.74 274.306 1089.55 276.458 1088.44 279.108C1087.21 277.154 1085.49 275.655 1082.86 275.295C1078.89 274.752 1074.86 276.933 1074.04 281.007C1072.3 289.603 1081.17 296.297 1088.76 299.042C1085.88 301.47 1082.92 303.816 1080.01 306.209C1078.68 307.299 1080.14 309.399 1081.57 308.397C1087.91 303.961 1094.02 299.106 1099.33 293.45C1103.01 289.525 1107.53 284.598 1105.81 278.743Z" fill="#221E1F" fill-opacity="0.12"/>
<path opacity="0.98" d="M1211.83 230.51C1217.19 230.259 1222.56 230.027 1227.91 229.7C1226.6 235.227 1225.06 241.319 1221.14 245.597C1219.3 247.6 1215.92 250.122 1212.98 249.187C1208.01 247.613 1212.35 241.812 1214.15 239.601C1215.14 238.401 1213.71 236.663 1212.35 236.976C1209.96 237.521 1201.21 238.451 1204.06 233.212C1205.5 230.56 1209.28 230.629 1211.83 230.51ZM1201.88 230.193C1199.62 232.746 1199.44 236.454 1201.94 238.919C1203.9 240.844 1206.42 241.242 1208.97 241.044C1207.49 243.661 1206.71 246.618 1208.32 249.462C1210.12 252.61 1214.02 253.045 1217.17 251.969C1226.24 248.879 1228.67 237.84 1230.17 229.613C1230.17 229.593 1230.17 229.574 1230.18 229.554C1230.32 229.545 1230.45 229.537 1230.59 229.528C1232.31 229.411 1232.56 226.795 1230.74 226.775C1224.92 226.71 1219.09 226.749 1213.27 226.848C1209.28 226.915 1204.74 226.964 1201.88 230.193Z" fill="#221E1F" fill-opacity="0.12"/>
<path opacity="0.96" d="M1332.85 227.288C1335.15 228.815 1337.6 230.354 1339.38 232.507C1341.02 234.489 1342.67 238.581 1339.59 240.143C1336.37 241.777 1333.56 238.436 1331.46 236.514C1330.94 236.036 1330.2 236.148 1329.71 236.605C1327.22 238.959 1326.36 242.486 1322.61 243.485C1320.74 243.981 1318.89 242.91 1317.98 241.267C1317.12 239.696 1317.45 237.837 1318.1 236.25C1320.06 231.401 1324.2 227.722 1327.33 223.557C1329.16 224.811 1331 226.06 1332.85 227.288ZM1315.13 240.624C1315.87 243.903 1319.15 246.548 1322.56 245.964C1324.48 245.635 1326.17 244.451 1327.6 243.171C1328.88 242.013 1329.65 240.487 1330.71 239.179C1333.1 241.37 1335.66 243.576 1339.17 242.848C1342.43 242.168 1344.13 239.137 1343.64 235.959C1343.09 232.438 1340.44 229.718 1337.66 227.711C1334.74 225.597 1331.62 223.731 1328.5 221.888C1328.5 221.885 1328.51 221.882 1328.51 221.879C1329.2 220.809 1327.55 219.834 1326.73 220.664C1326.69 220.701 1326.66 220.738 1326.62 220.775C1325.99 220.401 1325.36 220.025 1324.73 219.647C1323.89 219.139 1322.92 220.528 1323.74 221.096C1324.26 221.452 1324.78 221.807 1325.3 222.163C1322.93 224.716 1320.71 227.495 1318.7 230.3C1316.61 233.23 1314.28 236.847 1315.13 240.624Z" fill="#221E1F" fill-opacity="0.12"/>
<path opacity="0.91" d="M89.0584 390.715C91.34 388.008 94.1526 385.67 97.0367 383.632C100.237 381.37 103.798 379.4 107.555 378.234C110.5 380.727 113.013 383.792 114.911 387.145C116.613 390.149 118.282 393.908 118.308 397.235C118.328 399.864 117.722 402.239 116.007 404.176C115.981 404.199 115.832 404.354 115.796 404.388C115.673 404.501 115.553 404.62 115.426 404.73C115.26 404.874 114.866 405.182 114.836 405.203C114.815 405.218 114.361 405.482 114.176 405.574C113.899 405.712 113.454 405.89 113.412 405.904C112.137 406.3 110.934 406.316 109.628 406.017C106.262 405.252 103.432 401.597 104.268 398.076C104.473 397.215 104.285 396.318 103.513 395.792C102.826 395.322 101.713 395.311 101.097 395.923C98.6183 398.393 95.8918 401.263 92.2672 401.823C89.4067 402.263 86.6514 400.867 86.312 397.957C86.0147 395.418 87.3912 392.695 89.0584 390.715ZM82.4172 398.737C82.967 402.97 86.7342 405.77 90.8726 405.864C94.6615 405.95 97.7921 404.155 100.558 401.841C101.24 404.564 102.963 407.014 105.441 408.536C108.735 410.558 113.286 410.821 116.622 408.744C119.745 406.801 121.462 403.498 122.073 399.947C122.786 395.799 121.486 391.623 119.757 387.887C117.386 382.765 113.803 378.24 109.449 374.664C109.081 374.359 108.605 374.266 108.142 374.326C107.802 374.184 107.427 374.143 107.062 374.251C102.822 375.517 98.9259 377.572 95.2729 380.05C91.7135 382.464 88.3471 385.328 85.6179 388.667C83.365 391.423 81.9527 395.157 82.4172 398.737Z" fill="#221E1F" fill-opacity="0.12"/>
<path opacity="0.75" d="M168.908 364.64C167.591 359.873 166.09 354.916 166.217 349.921C166.334 345.319 168.909 337.851 174.905 339.357C181.176 340.933 181.038 348.739 181.624 353.809C181.77 355.067 182.9 355.786 184.091 355.736C190.218 355.479 195.524 351.722 201.774 354.786C204.876 356.307 206.124 359.932 205.417 363.214C204.74 366.354 202.103 368.47 199.371 369.861C191.024 374.108 181.109 374.215 171.986 376.167C170.984 372.319 169.969 368.475 168.908 364.64ZM208.514 367.432C211.37 362.136 210.047 354.713 204.751 351.494C201.764 349.678 198.089 349.293 194.664 349.351C191.564 349.404 188.73 350.559 185.77 351.089C185.117 345.324 184.238 339.326 178.652 336.199C173.447 333.286 167.588 335.385 164.521 340.256C161.121 345.655 161.512 352.445 162.903 358.415C164.37 364.707 166.393 370.89 168.441 377.042C168.434 377.044 168.427 377.046 168.421 377.048C166.226 377.677 167.316 380.939 169.4 380.78C169.492 380.773 169.585 380.765 169.677 380.757C170.09 382.005 170.501 383.253 170.904 384.501C171.445 386.176 174.39 385.441 173.941 383.704C173.659 382.615 173.378 381.526 173.096 380.438C179.295 379.77 185.559 378.624 191.563 377.188C197.833 375.688 205.224 373.533 208.514 367.432Z" fill="#221E1F" fill-opacity="0.12"/>
<path opacity="0.77" d="M442.085 420.075C435.495 414.868 428.92 409.632 422.257 404.519C429.482 399.332 437.557 393.714 446.59 392.69C450.82 392.211 457.4 392.699 459.922 396.831C464.168 403.787 453.089 406.192 448.682 406.948C446.29 407.358 446.187 410.875 448.121 411.908C451.5 413.714 462.795 421.603 454.052 424.871C449.624 426.526 445.225 422.558 442.085 420.075ZM453.522 430.676C458.821 429.985 462.84 425.786 462.412 420.298C462.078 416.014 459.505 412.952 456.291 410.57C460.731 409 464.693 406.309 465.702 401.286C466.816 395.724 462.655 391.202 457.819 389.231C443.927 383.566 429.724 394.123 419.498 402.303C419.475 402.323 419.452 402.343 419.429 402.364C419.254 402.232 419.083 402.098 418.908 401.966C416.758 400.339 413.782 403.179 415.911 405.07C422.717 411.122 429.646 417.065 436.622 422.924C441.411 426.946 446.823 431.55 453.522 430.676Z" fill="#221E1F" fill-opacity="0.12"/>
<path opacity="0.7" d="M518.669 287.73C511.501 287.063 504.33 286.369 497.154 285.804C499.926 278.703 503.108 270.894 509.124 265.941C511.941 263.622 516.899 260.901 520.64 262.694C526.94 265.713 520.099 272.613 517.283 275.214C515.756 276.626 517.323 279.202 519.196 279.042C522.468 278.762 534.27 279.16 529.511 285.591C527.1 288.848 522.086 288.049 518.669 287.73ZM531.84 290.012C535.327 287.041 536.255 282.146 533.386 278.401C531.146 275.478 527.866 274.478 524.444 274.265C526.903 271.064 528.495 267.28 526.876 263.198C525.08 258.68 519.978 257.372 515.581 258.212C502.95 260.625 497.668 274.845 494.136 285.498C494.129 285.524 494.122 285.549 494.115 285.575C493.928 285.561 493.742 285.546 493.555 285.532C491.249 285.366 490.436 288.797 492.849 289.163C500.567 290.336 508.322 291.373 516.072 292.328C521.392 292.985 527.432 293.767 531.84 290.012Z" fill="#221E1F" fill-opacity="0.12"/>
<path opacity="0.99" d="M739.318 386.394C736.233 389.42 733.08 392.667 729.208 394.687C725.641 396.546 718.843 397.743 717.454 392.521C716.001 387.061 722.026 383.86 725.652 381.263C726.552 380.619 726.623 379.451 726.08 378.562C723.288 373.987 718.169 371.524 717.863 365.448C717.71 362.434 719.953 359.944 722.761 359.094C725.448 358.281 728.182 359.4 730.402 360.899C737.184 365.479 741.468 373.012 746.824 379.158C744.308 381.554 741.8 383.958 739.318 386.394ZM724.672 354.94C719.415 355 714.301 359.157 714.085 364.568C713.962 367.621 715.225 370.592 716.721 373.186C718.075 375.532 720.158 377.209 721.817 379.247C717.687 382.188 713.476 385.402 713.452 390.996C713.431 396.208 717.517 399.797 722.54 400.077C728.106 400.388 733.131 397.213 737.104 393.621C741.292 389.834 745.16 385.669 748.995 381.497C749 381.501 749.004 381.505 749.008 381.51C750.419 382.921 752.45 380.706 751.446 379.18C751.401 379.112 751.356 379.045 751.311 378.978C752.09 378.133 752.869 377.29 753.652 376.454C754.703 375.331 752.894 373.391 751.756 374.471C751.043 375.147 750.331 375.823 749.618 376.5C746.481 372.045 742.952 367.743 739.31 363.762C735.508 359.606 730.73 354.87 724.672 354.94Z" fill="#221E1F" fill-opacity="0.12"/>
<path opacity="0.81" d="M855.744 330.018C854.089 333.086 851.746 335.637 849.419 338.196C847.53 335.578 846.026 332.446 845.34 329.307C845.021 327.849 845.065 326.412 845.548 324.988C845.881 324.008 846.28 322.491 847.736 324.097C848.373 324.799 848.305 326.555 848.324 327.36C848.365 329.069 850.821 329.28 851.005 327.534C851.148 326.184 851.773 325.091 852.531 323.999C853.239 322.977 854.754 320.736 856.244 321.143C859.471 322.024 856.656 328.327 855.744 330.018ZM854.048 318.759C852.477 319.468 851.061 320.949 850.026 322.651C849.567 321.776 848.895 321.051 847.908 320.646C845.587 319.691 843.883 321.887 843.187 323.832C841.213 329.349 844.478 335.573 847.993 339.779C847.766 340.035 847.54 340.292 847.317 340.55C846.428 341.582 848.082 342.955 849.07 342.113C852.248 339.403 855.286 336.218 857.455 332.63C859.264 329.638 861.228 325.396 860.132 321.857C859.336 319.286 856.645 317.586 854.048 318.759Z" fill="#221E1F" fill-opacity="0.12"/>
<path opacity="0.98" d="M1026.35 368.367C1030.35 366.268 1034.36 364.183 1038.33 362.028C1039.29 366.713 1040.29 371.909 1038.82 376.571C1038.13 378.754 1036.45 381.881 1033.86 382.215C1029.52 382.78 1030.76 376.811 1031.35 374.48C1031.67 373.215 1029.97 372.395 1029.04 373.119C1027.41 374.385 1021.07 378.208 1021.37 373.198C1021.53 370.66 1024.44 369.367 1026.35 368.367ZM1018.64 371.668C1017.82 374.422 1019 377.316 1021.79 378.305C1023.97 379.079 1026.04 378.484 1027.91 377.426C1027.71 379.951 1028.16 382.486 1030.41 384.081C1032.9 385.845 1036.03 384.79 1038.06 382.845C1043.88 377.259 1041.8 367.971 1040.02 361.158C1040.01 361.142 1040.01 361.126 1040 361.11C1040.11 361.053 1040.21 360.998 1040.31 360.942C1041.58 360.241 1040.84 358.158 1039.44 358.79C1034.98 360.81 1030.55 362.914 1026.14 365.06C1023.12 366.533 1019.67 368.185 1018.64 371.668Z" fill="#221E1F" fill-opacity="0.12"/>
<path opacity="0.85" d="M1126.36 415.351C1123.75 413.445 1121.44 411.032 1119.4 408.535C1117.13 405.765 1115.11 402.646 1113.81 399.299C1115.89 396.458 1118.53 393.973 1121.46 392.031C1124.09 390.29 1127.4 388.53 1130.43 388.295C1132.83 388.109 1135.03 388.51 1136.9 389.948C1136.92 389.97 1137.07 390.096 1137.11 390.127C1137.22 390.232 1137.33 390.334 1137.44 390.443C1137.58 390.584 1137.89 390.924 1137.91 390.949C1137.93 390.968 1138.2 391.364 1138.29 391.527C1138.43 391.77 1138.62 392.164 1138.64 392.202C1139.08 393.338 1139.17 394.433 1138.98 395.642C1138.5 398.756 1135.35 401.566 1132.09 401.029C1131.3 400.897 1130.49 401.125 1130.06 401.862C1129.68 402.518 1129.74 403.533 1130.33 404.054C1132.74 406.155 1135.53 408.455 1136.27 411.721C1136.85 414.298 1135.76 416.897 1133.13 417.391C1130.83 417.824 1128.27 416.743 1126.36 415.351ZM1134.09 420.889C1137.91 420.119 1140.22 416.509 1140.04 412.734C1139.88 409.277 1138.04 406.54 1135.76 404.169C1138.2 403.373 1140.32 401.648 1141.55 399.294C1143.18 396.165 1143.13 392.004 1141.02 389.097C1139.05 386.377 1135.94 385.023 1132.66 384.693C1128.84 384.308 1125.12 385.757 1121.83 387.57C1117.31 390.056 1113.42 393.607 1110.44 397.801C1110.18 398.156 1110.13 398.595 1110.21 399.013C1110.11 399.332 1110.09 399.676 1110.21 400.001C1111.64 403.783 1113.76 407.201 1116.25 410.37C1118.67 413.458 1121.5 416.342 1124.71 418.615C1127.36 420.492 1130.86 421.54 1134.09 420.889Z" fill="#221E1F" fill-opacity="0.12"/>
<path opacity="0.83" d="M1286.83 385.937C1289.87 384.047 1293.3 382.678 1296.71 381.62C1300.49 380.445 1304.53 379.663 1308.51 379.716C1310.56 383.033 1312.02 386.764 1312.8 390.581C1313.49 394 1313.92 398.136 1312.91 401.342C1312.11 403.876 1310.78 405.97 1308.53 407.297C1308.5 407.31 1308.31 407.413 1308.26 407.434C1308.11 407.505 1307.95 407.582 1307.8 407.647C1307.59 407.735 1307.12 407.907 1307.08 407.918C1307.06 407.925 1306.54 408.038 1306.33 408.069C1306.02 408.115 1305.54 408.147 1305.5 408.148C1304.15 408.129 1302.98 407.769 1301.82 407.074C1298.83 405.287 1297.25 400.889 1299.15 397.765C1299.62 397.001 1299.72 396.08 1299.14 395.334C1298.62 394.667 1297.56 394.308 1296.77 394.705C1293.62 396.305 1290.1 398.213 1286.44 397.618C1283.55 397.148 1281.34 394.945 1281.92 392.042C1282.43 389.507 1284.61 387.32 1286.83 385.937ZM1277.94 391.575C1277.14 395.816 1279.89 399.685 1283.84 401.068C1287.45 402.335 1291.03 401.587 1294.41 400.226C1294.21 403.057 1295.1 405.95 1297.01 408.188C1299.55 411.161 1303.84 412.835 1307.69 411.88C1311.3 410.987 1313.99 408.348 1315.68 405.126C1317.66 401.361 1317.72 396.94 1317.22 392.808C1316.54 387.143 1314.51 381.674 1311.44 376.875C1311.19 376.467 1310.76 376.229 1310.29 376.142C1310.01 375.899 1309.66 375.743 1309.28 375.732C1304.81 375.625 1300.42 376.384 1296.13 377.625C1291.96 378.834 1287.83 380.536 1284.16 382.893C1281.13 384.839 1278.61 387.988 1277.94 391.575Z" fill="#221E1F" fill-opacity="0.12"/>
<path opacity="0.95" d="M38.1288 398.618C43.9433 396.876 49.7684 395.154 55.557 393.329C55.6329 399.756 55.6115 406.865 52.4728 412.637C51.0035 415.34 47.9867 419.033 44.4955 418.813C38.6171 418.443 41.7857 410.888 43.1653 407.965C43.9138 406.379 41.8751 404.861 40.4612 405.577C37.9918 406.829 28.6395 410.245 30.329 403.715C31.185 400.408 35.3572 399.448 38.1288 398.618ZM27.1119 400.995C25.3247 404.418 26.1448 408.538 29.571 410.559C32.2451 412.138 35.1249 411.883 37.8674 410.969C36.9564 414.248 36.907 417.709 39.4619 420.388C42.293 423.353 46.6945 422.764 49.8664 420.718C58.9784 414.843 58.616 402.058 58.0126 392.614C58.0103 392.592 58.0075 392.57 58.0049 392.548C58.1556 392.499 58.3057 392.453 58.4564 392.405C60.3108 391.806 59.8628 388.867 57.8611 389.343C51.4572 390.864 45.0672 392.503 38.7069 394.204C34.3406 395.371 29.3718 396.667 27.1119 400.995Z" fill="#221E1F" fill-opacity="0.12"/>
<path opacity="0.73" d="M178.788 495.325C177.584 487.441 176.408 479.547 175.092 471.681C183.469 472.758 192.715 474.085 199.652 479.225C202.9 481.631 207.154 486.232 206.229 490.734C204.673 498.315 195.421 492.811 191.87 490.481C189.944 489.217 187.595 491.592 188.269 493.563C189.447 497.005 192.181 509.799 183.993 506.406C179.847 504.688 179.361 499.083 178.788 495.325ZM179.866 510.095C183.993 513.046 189.504 512.733 192.76 508.644C195.303 505.453 195.499 501.66 194.81 497.924C198.91 499.709 203.404 500.406 207.358 497.572C211.734 494.43 211.772 488.595 209.69 484.094C203.711 471.163 187.011 469.297 174.612 468.355C174.583 468.354 174.553 468.354 174.524 468.353C174.489 468.148 174.456 467.944 174.42 467.739C173.981 465.217 170.074 465.263 170.328 467.954C171.136 476.565 172.099 485.179 173.15 493.766C173.87 499.661 174.647 506.363 179.866 510.095Z" fill="#221E1F" fill-opacity="0.12"/>
<path opacity="0.92" d="M361.584 490.097C354.836 493.488 348.071 496.857 341.373 500.344C339.891 492.485 338.381 483.77 340.98 476.019C342.196 472.39 345.095 467.213 349.42 466.729C356.703 465.911 354.453 475.853 353.394 479.733C352.819 481.837 355.645 483.258 357.223 482.074C359.978 480.007 370.699 473.8 370.04 482.167C369.706 486.404 364.801 488.481 361.584 490.097ZM374.57 484.805C376.02 480.224 374.125 475.353 369.49 473.617C365.873 472.261 362.399 473.194 359.236 474.908C359.644 470.693 358.957 466.442 355.247 463.711C351.138 460.689 345.872 462.362 342.428 465.554C332.532 474.722 335.738 490.308 338.518 501.749C338.526 501.776 338.534 501.803 338.542 501.829C338.368 501.921 338.194 502.01 338.02 502.102C335.877 503.236 337.061 506.741 339.41 505.725C346.929 502.477 354.404 499.089 361.83 495.631C366.928 493.257 372.736 490.596 374.57 484.805Z" fill="#221E1F" fill-opacity="0.12"/>
<path opacity="0.97" d="M577.367 508.164C574.445 513.161 571.503 518.149 568.653 523.186C564.421 518.754 559.813 513.782 558.248 507.716C557.515 504.876 557.217 500.339 559.795 498.222C564.135 494.657 566.838 501.986 567.777 504.922C568.286 506.514 570.695 506.248 571.215 504.828C572.123 502.35 576.423 493.886 579.492 499.538C581.045 502.401 578.76 505.783 577.367 508.164ZM583.504 499.343C582.524 495.794 579.273 493.454 575.569 494.272C572.678 494.911 570.836 496.961 569.518 499.382C568.021 496.503 565.805 494.057 562.281 493.85C558.378 493.623 555.692 496.897 554.811 500.386C552.277 510.409 560.843 519.088 567.405 525.281C567.421 525.295 567.438 525.309 567.454 525.322C567.38 525.454 567.306 525.584 567.232 525.716C566.328 527.339 568.552 529.097 569.638 527.464C573.115 522.239 576.505 516.941 579.834 511.619C582.12 507.965 584.742 503.831 583.504 499.343Z" fill="#221E1F" fill-opacity="0.12"/>
<path opacity="0.79" d="M680.949 469.698C683.219 462.388 689.061 455.202 693.74 449.283C694.282 448.596 694.832 447.916 695.381 447.237C704.669 448.834 716.606 454.431 720.057 463.246C722.111 468.494 720.21 473.789 714.037 474.457C707.908 475.121 705.028 468.642 702.64 464.133C701.166 461.348 697.197 463.835 698.492 466.596C701.964 473.997 696.176 483.037 687.818 482.425C681.356 481.952 679.246 475.185 680.949 469.698ZM677.08 480.217C680.501 487.115 689.001 488.838 695.618 485.492C700.065 483.244 702.876 479.314 703.86 474.913C706.304 477.599 709.371 479.451 713.541 479.29C719.829 479.047 725.482 474.571 725.639 468.041C725.972 454.267 710.431 446.326 697.927 444.15C701.729 439.605 705.665 435.168 709.521 430.67C711.279 428.62 708.445 425.77 706.502 427.71C697.896 436.306 689.777 445.486 683.104 455.686C678.471 462.768 672.821 471.626 677.08 480.217Z" fill="#221E1F" fill-opacity="0.12"/>
<path opacity="0.94" d="M860.573 405.288C855.195 404.502 849.817 403.695 844.429 402.986C846.8 397.741 849.507 391.981 854.238 388.484C856.453 386.847 860.298 384.992 863.048 386.492C867.678 389.016 862.248 393.948 860.023 395.798C858.815 396.801 859.895 398.805 861.314 398.758C863.791 398.677 872.673 399.443 868.831 404.103C866.885 406.463 863.136 405.663 860.573 405.288ZM870.412 407.528C873.158 405.426 874.051 401.773 872.036 398.836C870.463 396.544 868.03 395.66 865.458 395.365C867.438 393.049 868.788 390.259 867.729 387.118C866.554 383.64 862.759 382.453 859.411 382.913C849.794 384.233 845.25 394.744 842.166 402.636C842.16 402.654 842.154 402.674 842.147 402.693C842.007 402.675 841.867 402.656 841.727 402.638C839.996 402.422 839.247 404.977 841.051 405.347C846.824 406.537 852.629 407.625 858.434 408.651C862.418 409.356 866.94 410.185 870.412 407.528Z" fill="#221E1F" fill-opacity="0.12"/>
<path opacity="0.96" d="M920.111 463.985C921.269 455.997 926.169 447.549 930.065 440.612C930.517 439.807 930.977 439.008 931.438 438.211C941.375 438.341 954.731 442.201 959.78 450.814C962.785 455.942 961.678 461.769 955.359 463.484C949.085 465.186 945.016 458.914 941.785 454.611C939.79 451.953 936.067 455.199 937.871 457.861C942.708 464.996 938.171 475.367 929.365 476.109C922.556 476.682 919.242 469.981 920.111 463.985ZM917.816 475.58C922.517 482.2 931.655 482.592 937.995 478.016C942.256 474.941 944.535 470.384 944.834 465.637C947.823 468.032 951.323 469.455 955.64 468.599C962.148 467.309 967.298 461.715 966.385 454.887C964.459 440.486 946.962 434.779 933.58 434.575C936.79 429.214 940.157 423.943 943.432 418.622C944.925 416.197 941.502 413.696 939.799 416.037C932.254 426.41 925.312 437.311 920.044 449.036C916.386 457.176 911.963 467.334 917.816 475.58Z" fill="#221E1F" fill-opacity="0.12"/>
<path opacity="0.71" d="M1301.7 431.872C1302.16 434.876 1302.09 438.015 1301.79 441.032C1301.45 444.381 1300.72 447.799 1299.36 450.89C1296.09 451.394 1292.69 451.296 1289.44 450.637C1286.54 450.048 1283.16 449.012 1280.99 447.154C1279.28 445.686 1278.08 443.956 1277.79 441.753C1277.79 441.724 1277.77 441.539 1277.77 441.497C1277.77 441.353 1277.76 441.208 1277.76 441.064C1277.76 440.875 1277.78 440.447 1277.78 440.416C1277.79 440.394 1277.87 439.951 1277.92 439.779C1277.98 439.522 1278.12 439.133 1278.13 439.097C1278.59 438.048 1279.26 437.26 1280.19 436.582C1282.58 434.831 1286.55 435.056 1288.36 437.582C1288.8 438.2 1289.49 438.583 1290.26 438.379C1290.95 438.199 1291.59 437.484 1291.54 436.739C1291.33 433.742 1291.01 430.358 1292.69 427.694C1294.02 425.592 1296.47 424.593 1298.55 426.012C1300.36 427.25 1301.35 429.676 1301.7 431.872ZM1300.24 423.048C1297.19 421.021 1293.25 421.884 1290.86 424.513C1288.67 426.92 1288.06 429.96 1288.01 433.056C1285.86 431.964 1283.3 431.701 1280.92 432.45C1277.75 433.445 1275.02 436.246 1274.48 439.578C1273.98 442.697 1275.16 445.671 1277.11 448.066C1279.4 450.865 1282.84 452.376 1286.23 453.36C1290.89 454.708 1295.84 454.936 1300.61 454.129C1301.02 454.062 1301.34 453.806 1301.57 453.472C1301.85 453.332 1302.09 453.112 1302.22 452.815C1303.79 449.353 1304.65 445.671 1305.11 441.907C1305.55 438.241 1305.59 434.446 1304.96 430.796C1304.44 427.783 1302.82 424.764 1300.24 423.048Z" fill="#221E1F" fill-opacity="0.12"/>
<path opacity="0.84" d="M1396.92 529.663C1389.87 532.056 1380.87 531.568 1373.54 531.27C1372.69 531.236 1371.84 531.192 1370.99 531.148C1366.94 522.926 1364.52 510.332 1369.48 502.576C1372.44 497.959 1377.69 496.428 1381.75 500.904C1385.77 505.348 1382.32 511.318 1380.14 515.775C1378.79 518.528 1383.02 520.229 1384.45 517.631C1388.29 510.668 1398.71 510.054 1403.01 516.981C1406.33 522.337 1402.21 527.867 1396.92 529.663ZM1407.41 526.694C1410.88 520.058 1407.38 512.384 1400.96 509.089C1396.65 506.875 1391.95 506.91 1387.92 508.652C1388.64 505.192 1388.34 501.721 1385.83 498.531C1382.05 493.722 1375.29 491.832 1370.06 495.442C1359.03 503.056 1361.67 519.826 1367.11 530.91C1361.36 530.516 1355.62 529.956 1349.87 529.493C1347.25 529.281 1346.63 533.142 1349.27 533.561C1360.95 535.419 1372.82 536.559 1384.66 535.979C1392.88 535.576 1403.08 534.958 1407.41 526.694Z" fill="#221E1F" fill-opacity="0.12"/>
<path opacity="0.97" d="M124.772 561.95C128.668 569.071 132.54 576.211 136.536 583.275C128.15 585.161 118.846 587.11 110.423 584.609C106.48 583.439 100.81 580.52 100.128 575.892C98.977 568.1 109.74 570.144 113.947 571.136C116.229 571.674 117.649 568.585 116.318 566.935C113.994 564.054 106.925 552.771 115.937 553.165C120.501 553.365 122.916 558.555 124.772 561.95ZM118.6 548.201C113.626 546.815 108.465 549.033 106.774 554.076C105.453 558.013 106.586 561.709 108.545 565.042C104.003 564.762 99.4622 565.659 96.6677 569.746C93.5763 574.274 95.571 579.867 99.1286 583.447C109.347 593.732 125.968 589.703 138.153 586.288C138.181 586.279 138.21 586.27 138.238 586.26C138.343 586.444 138.445 586.627 138.551 586.811C139.849 589.07 143.569 587.667 142.389 585.181C138.62 577.227 134.7 569.325 130.706 561.479C127.966 556.092 124.89 549.953 118.6 548.201Z" fill="#221E1F" fill-opacity="0.12"/>
<path opacity="0.82" d="M208.124 588.473C211.629 586.03 215.636 584.185 219.634 582.711C224.07 581.073 228.835 579.889 233.578 579.704C236.231 583.529 238.203 587.885 239.368 592.386C240.413 596.418 241.184 601.32 240.176 605.205C239.378 608.276 237.93 610.854 235.327 612.576C235.29 612.594 235.067 612.729 235.015 612.757C234.836 612.85 234.659 612.952 234.476 613.04C234.238 613.157 233.683 613.392 233.642 613.407C233.612 613.418 233.001 613.584 232.757 613.634C232.391 613.708 231.817 613.776 231.763 613.78C230.153 613.843 228.746 613.486 227.317 612.73C223.633 610.787 221.477 605.644 223.551 601.801C224.059 600.861 224.12 599.758 223.385 598.904C222.73 598.141 221.436 597.781 220.527 598.302C216.868 600.406 212.794 602.9 208.395 602.42C204.924 602.04 202.149 599.553 202.662 596.056C203.108 593.003 205.563 590.26 208.124 588.473ZM197.879 595.749C197.198 600.853 200.714 605.293 205.508 606.695C209.897 607.978 214.105 606.864 218.051 605.03C217.996 608.417 219.24 611.81 221.652 614.358C224.859 617.743 230.08 619.47 234.617 618.092C238.863 616.802 241.896 613.489 243.716 609.542C245.842 604.931 245.632 599.658 244.784 594.764C243.619 588.054 240.858 581.662 236.9 576.134C236.566 575.664 236.041 575.407 235.482 575.332C235.13 575.061 234.706 574.896 234.248 574.907C228.91 575.059 223.728 576.237 218.697 577.985C213.795 579.686 208.977 581.973 204.754 585.012C201.268 587.521 198.456 591.431 197.879 595.749Z" fill="#221E1F" fill-opacity="0.12"/>
<path opacity="0.76" d="M352.036 596.772C353.387 601.009 354.723 605.253 356.134 609.47C351.427 609.608 346.22 609.683 341.952 607.458C339.953 606.416 337.21 604.254 337.326 601.694C337.522 597.383 343.096 599.608 345.255 600.581C346.426 601.109 347.512 599.596 346.969 598.57C346.021 596.777 343.399 589.97 348.204 591.124C350.637 591.709 351.393 594.753 352.036 596.772ZM350.155 588.733C347.624 587.468 344.617 588.121 343.181 590.657C342.059 592.636 342.282 594.742 342.987 596.739C340.574 596.113 338.038 596.121 336.108 598.027C333.972 600.138 334.46 603.355 335.999 605.652C340.419 612.251 349.779 611.822 356.688 611.259C356.704 611.257 356.72 611.255 356.737 611.253C356.774 611.363 356.81 611.472 356.847 611.582C357.309 612.932 359.456 612.567 359.082 611.107C357.886 606.435 356.604 601.776 355.277 597.139C354.366 593.956 353.354 590.333 350.155 588.733Z" fill="#221E1F" fill-opacity="0.12"/>
<path opacity="0.86" d="M508.005 562.313C508.877 564.862 509.299 567.612 509.498 570.292C509.72 573.265 509.609 576.36 508.897 579.267C506.117 580.211 503.133 580.649 500.202 580.573C497.577 580.505 494.471 580.121 492.291 578.834C490.569 577.817 489.257 576.491 488.666 574.614C488.661 574.588 488.618 574.43 488.61 574.393C488.585 574.268 488.554 574.143 488.533 574.017C488.503 573.852 488.457 573.475 488.455 573.448C488.454 573.428 488.459 573.028 488.471 572.872C488.49 572.637 488.548 572.277 488.556 572.244C488.797 571.257 489.258 570.466 489.965 569.731C491.783 567.836 495.276 567.423 497.244 569.348C497.726 569.819 498.384 570.048 499.03 569.751C499.606 569.487 500.049 568.765 499.891 568.123C499.252 565.539 498.448 562.636 499.504 560.053C500.337 558.015 502.328 556.765 504.358 557.684C506.131 558.485 507.367 560.45 508.005 562.313ZM505.376 554.838C502.4 553.538 499.097 554.897 497.414 557.559C495.873 559.997 495.817 562.742 496.243 565.453C494.199 564.831 491.927 564.995 489.963 566.014C487.353 567.37 485.398 570.235 485.445 573.224C485.489 576.023 486.971 578.437 489.047 580.227C491.473 582.317 494.706 583.106 497.82 583.443C502.09 583.903 506.444 583.34 510.483 581.902C510.826 581.781 511.073 581.507 511.216 581.182C511.442 581.015 511.616 580.787 511.688 580.507C512.524 577.245 512.711 573.899 512.526 570.545C512.347 567.278 511.798 563.96 510.69 560.872C509.775 558.322 507.893 555.938 505.376 554.838Z" fill="#221E1F" fill-opacity="0.12"/>
<path opacity="0.87" d="M776.256 606.718C775.885 603.442 775.414 600.022 776.019 596.746C776.576 593.728 779.05 589.079 782.841 590.696C786.806 592.388 785.901 597.513 785.758 600.913C785.723 601.756 786.392 602.347 787.181 602.439C791.243 602.909 795.128 600.988 798.924 603.658C800.808 604.982 801.252 607.5 800.444 609.587C799.67 611.584 797.714 612.702 795.77 613.333C789.831 615.259 783.291 614.296 777.08 614.629C776.821 611.991 776.554 609.354 776.256 606.718ZM802.043 612.687C804.476 609.498 804.379 604.472 801.228 601.8C799.45 600.293 797.071 599.656 794.809 599.337C792.763 599.049 790.776 599.514 788.772 599.554C788.943 595.69 788.989 591.649 785.637 589.007C782.514 586.546 778.438 587.317 775.91 590.205C773.108 593.405 772.657 597.917 772.951 601.993C773.26 606.289 773.947 610.571 774.654 614.836C774.65 614.837 774.645 614.837 774.641 614.838C773.13 615.023 773.507 617.284 774.896 617.397C774.958 617.402 775.019 617.406 775.081 617.411C775.223 618.276 775.363 619.141 775.498 620.004C775.68 621.163 777.696 620.986 777.581 619.796C777.509 619.05 777.438 618.304 777.366 617.557C781.517 617.764 785.761 617.663 789.864 617.343C794.149 617.009 799.241 616.362 802.043 612.687Z" fill="#221E1F" fill-opacity="0.12"/>
<path opacity="0.86" d="M834.25 538.281C836.883 541.139 838.722 544.533 840.574 547.915C837.13 548.956 833.283 549.404 829.724 548.988C828.072 548.795 826.574 548.227 825.248 547.201C824.336 546.495 822.882 545.524 825.103 544.572C826.074 544.156 827.9 544.865 828.756 545.136C830.571 545.713 831.685 543.201 829.912 542.373C828.541 541.733 827.616 540.678 826.74 539.482C825.92 538.365 824.107 535.955 825.077 534.533C827.177 531.451 832.798 536.705 834.25 538.281ZM821.767 535.981C821.944 537.894 822.992 539.924 824.41 541.633C823.321 541.799 822.313 542.245 821.527 543.139C819.679 545.239 821.375 547.831 823.173 549.27C828.272 553.354 836.016 552.171 841.725 549.993C841.913 550.325 842.101 550.656 842.293 550.985C843.057 552.296 845.105 551.052 844.576 549.704C842.874 545.371 840.618 541.013 837.624 537.425C835.127 534.432 831.369 530.823 827.241 530.693C824.242 530.599 821.474 532.819 821.767 535.981Z" fill="#221E1F" fill-opacity="0.12"/>
<path opacity="0.88" d="M974.262 577.745C966.608 574.287 958.961 570.797 951.26 567.448C957.015 560.667 963.491 553.262 972.009 550.084C975.997 548.595 982.5 547.477 985.946 550.876C991.749 556.599 981.581 561.612 977.487 563.412C975.266 564.389 976.016 567.826 978.143 568.361C981.859 569.295 994.727 574.217 987.034 579.504C983.138 582.18 977.91 579.395 974.262 577.745ZM987.925 585.264C992.899 583.312 995.782 578.265 994.039 573.044C992.679 568.968 989.441 566.619 985.747 565.085C989.675 562.488 992.868 558.918 992.633 553.801C992.368 548.134 987.236 544.754 982.067 544.011C967.217 541.875 955.99 555.554 948.047 565.965C948.029 565.99 948.012 566.016 947.994 566.041C947.793 565.955 947.594 565.867 947.393 565.781C944.913 564.722 942.713 568.198 945.236 569.518C953.304 573.743 961.464 577.833 969.651 581.83C975.27 584.575 981.635 587.733 987.925 585.264Z" fill="#221E1F" fill-opacity="0.12"/>
<path opacity="0.73" d="M1158.19 606.801C1157.88 614.488 1157.54 622.179 1157.34 629.869C1149.61 627.308 1141.1 624.349 1135.48 618.206C1132.84 615.33 1129.66 610.19 1131.37 606.098C1134.24 599.205 1141.98 606.12 1144.92 608.98C1146.51 610.531 1149.17 608.714 1148.89 606.724C1148.41 603.248 1148.18 590.631 1155.31 595.351C1158.92 597.741 1158.34 603.137 1158.19 606.801ZM1159.89 592.617C1156.53 589.063 1151.25 588.346 1147.42 591.618C1144.42 594.171 1143.54 597.727 1143.5 601.391C1139.95 598.947 1135.82 597.459 1131.56 599.415C1126.83 601.584 1125.72 607.102 1126.87 611.748C1130.15 625.092 1145.62 629.933 1157.19 633.107C1157.21 633.113 1157.24 633.119 1157.27 633.125C1157.26 633.326 1157.26 633.524 1157.25 633.725C1157.21 636.194 1160.91 636.87 1161.17 634.275C1161.99 625.973 1162.66 617.639 1163.25 609.315C1163.65 603.601 1164.15 597.112 1159.89 592.617Z" fill="#221E1F" fill-opacity="0.12"/>
<path opacity="0.83" d="M1392.62 556.231C1392.29 560.45 1392.04 564.876 1390.48 568.857C1389.04 572.523 1384.78 577.776 1380.4 574.809C1375.82 571.706 1378.21 565.469 1379.22 561.22C1379.48 560.165 1378.78 559.256 1377.81 558.948C1372.8 557.36 1367.44 558.829 1363.31 554.535C1361.26 552.404 1361.31 549.123 1362.84 546.691C1364.31 544.364 1367.05 543.434 1369.65 543.115C1377.61 542.143 1385.61 544.959 1393.52 546.06C1393.2 549.447 1392.89 552.836 1392.62 556.231ZM1361.59 542.392C1357.74 545.815 1356.63 552.173 1359.95 556.312C1361.82 558.647 1364.66 560.032 1367.43 560.987C1369.94 561.852 1372.56 561.753 1375.09 562.193C1373.93 567.021 1372.88 572.102 1376.46 576.252C1379.79 580.119 1385.12 580.145 1389.01 577.125C1393.33 573.779 1395 568.203 1395.63 562.995C1396.29 557.506 1396.47 551.941 1396.63 546.393C1396.63 546.394 1396.64 546.394 1396.65 546.395C1398.6 546.531 1398.67 543.589 1396.95 543.106C1396.87 543.085 1396.8 543.065 1396.72 543.044C1396.75 541.919 1396.79 540.795 1396.83 539.674C1396.89 538.168 1394.3 537.897 1394.15 539.426C1394.06 540.384 1393.97 541.342 1393.88 542.3C1388.7 541.022 1383.32 540.11 1378.07 539.508C1372.59 538.879 1366.02 538.448 1361.59 542.392Z" fill="#221E1F" fill-opacity="0.12"/>
<path opacity="0.71" d="M28.8895 666.129C29.7393 663.532 31.0761 661.047 32.5507 658.755C34.1865 656.211 36.1653 653.772 38.5166 651.851C41.3442 652.784 44.0287 654.25 46.3565 656.101C48.4421 657.758 50.7231 659.966 51.7036 662.339C52.4779 664.214 52.7309 666.088 52.0642 667.97C52.0521 667.994 51.9901 668.148 51.9742 668.183C51.9186 668.299 51.8671 668.419 51.8079 668.535C51.7311 668.686 51.5381 669.02 51.523 669.044C51.512 669.06 51.264 669.381 51.1582 669.5C51 669.679 50.7327 669.935 50.7066 669.957C49.9087 670.609 49.0527 670.968 48.0314 671.132C45.4018 671.558 42.3203 669.761 41.9009 666.999C41.7982 666.324 41.4048 665.736 40.7004 665.583C40.0726 665.445 39.2727 665.759 39.0092 666.376C37.9496 668.859 36.8286 671.701 34.3967 673.149C32.4772 674.292 30.102 674.089 29.018 672.105C28.0711 670.374 28.2689 668.028 28.8895 666.129ZM26.4566 673.79C28.0736 676.659 31.5788 677.574 34.5672 676.445C37.3033 675.411 39.0244 673.222 40.3342 670.766C41.61 672.517 43.5511 673.772 45.7641 674.145C48.7056 674.639 52.0377 673.512 53.8246 671.061C55.4972 668.768 55.7712 665.908 55.1816 663.191C54.4927 660.017 52.3554 657.404 50.0384 655.231C46.8604 652.251 42.9891 650.049 38.8394 648.749C38.4879 648.637 38.1208 648.708 37.8064 648.885C37.522 648.882 37.2421 648.961 37.0123 649.143C34.3441 651.276 32.1503 653.872 30.253 656.701C28.4038 659.457 26.823 662.48 25.8355 665.658C25.0203 668.282 25.0893 671.362 26.4566 673.79Z" fill="#221E1F" fill-opacity="0.12"/>
<path opacity="0.78" d="M310.845 602.981C319.258 601.995 327.679 601.04 336.076 599.934C334.623 608.785 332.871 618.549 327.159 625.72C324.485 629.078 319.445 633.422 314.701 632.273C306.713 630.341 312.898 620.727 315.502 617.044C316.914 615.047 314.481 612.466 312.364 613.108C308.668 614.23 294.988 616.658 298.892 608.094C300.87 603.757 306.836 603.449 310.845 602.981ZM295.131 603.577C291.845 607.848 291.974 613.708 296.192 617.316C299.484 620.132 303.503 620.481 307.494 619.888C305.447 624.173 304.541 628.917 307.402 633.219C310.574 637.979 316.765 638.236 321.62 636.193C335.565 630.327 338.164 612.672 339.623 599.548C339.626 599.517 339.627 599.486 339.629 599.455C339.848 599.425 340.065 599.398 340.284 599.367C342.977 598.994 343.074 594.847 340.208 595.016C331.039 595.555 321.861 596.258 312.709 597.054C306.427 597.6 299.285 598.177 295.131 603.577Z" fill="#221E1F" fill-opacity="0.12"/>
<path opacity="0.72" d="M369.776 695.655C374.292 700.222 378.795 704.809 383.376 709.31C377.408 712.574 370.756 716.086 363.804 716.021C360.549 715.991 355.6 715.007 354.071 711.636C351.496 705.96 360.129 705.167 363.545 705.004C365.399 704.916 365.805 702.256 364.433 701.291C362.037 699.606 354.199 692.566 361.14 690.9C364.654 690.057 367.624 693.478 369.776 695.655ZM362.082 686.543C357.996 686.574 354.555 689.387 354.368 693.592C354.222 696.874 355.89 699.439 358.107 701.546C354.591 702.324 351.333 703.997 350.099 707.715C348.735 711.833 351.472 715.653 354.959 717.6C364.975 723.194 376.739 716.505 385.263 711.25C385.282 711.237 385.302 711.223 385.321 711.21C385.441 711.326 385.559 711.444 385.679 711.56C387.16 712.996 389.683 711.117 388.244 709.483C383.641 704.256 378.936 699.1 374.187 694.003C370.928 690.503 367.249 686.504 362.082 686.543Z" fill="#221E1F" fill-opacity="0.12"/>
<path opacity="0.97" d="M517.649 714.355C512.653 713.983 507.209 711.316 502.745 709.203C502.228 708.958 501.713 708.708 501.199 708.458C500.85 702.299 502.662 693.862 507.776 690.363C510.821 688.28 514.477 688.713 515.812 692.552C517.138 696.363 513.43 699.154 510.906 701.34C509.347 702.691 511.517 704.856 513.088 703.623C517.296 700.319 523.914 702.679 524.755 708.1C525.404 712.291 521.399 714.633 517.649 714.355ZM524.927 715.273C528.823 712.076 528.67 706.401 525.562 702.674C523.473 700.169 520.553 698.955 517.601 698.975C518.955 697.021 519.684 694.792 518.967 692.156C517.887 688.182 514.2 685.236 510.012 686.097C501.178 687.913 498.402 698.994 498.855 707.289C495.397 705.533 491.987 703.676 488.551 701.879C486.985 701.059 485.584 703.287 487.108 704.24C493.857 708.463 500.907 712.289 508.395 715.043C513.594 716.956 520.075 719.255 524.927 715.273Z" fill="#221E1F" fill-opacity="0.12"/>
<path opacity="0.96" d="M702.842 676.454C702.231 669.104 704.857 660.574 706.9 653.597C707.137 652.787 707.382 651.981 707.628 651.177C716.503 649.25 729.189 649.942 735.454 656.572C739.184 660.52 739.396 665.937 734.122 668.762C728.886 671.567 723.974 666.819 720.213 663.652C717.89 661.695 715.242 665.351 717.396 667.35C723.17 672.709 721.262 682.875 713.573 685.346C707.629 687.256 703.3 681.971 702.842 676.454ZM703.182 687.249C708.728 692.178 716.945 690.648 721.649 685.27C724.811 681.656 725.904 677.131 725.194 672.843C728.348 674.361 731.756 674.908 735.424 673.259C740.954 670.772 744.389 664.732 742.173 658.841C737.497 646.414 720.746 644.93 708.788 647.499C710.545 642.066 712.459 636.681 714.282 631.27C715.112 628.804 711.55 627.28 710.515 629.715C705.929 640.502 701.989 651.634 699.709 663.157C698.126 671.157 696.275 681.11 703.182 687.249Z" fill="#221E1F" fill-opacity="0.12"/>
<path opacity="0.86" d="M860.711 634.644C861.559 628.79 865.149 622.6 868.004 617.516C868.336 616.927 868.673 616.341 869.01 615.757C876.292 615.853 886.079 618.681 889.778 624.992C891.98 628.749 891.169 633.02 886.539 634.276C881.941 635.523 878.96 630.927 876.593 627.775C875.131 625.827 872.403 628.205 873.725 630.156C877.269 635.384 873.944 642.984 867.492 643.527C862.503 643.947 860.074 639.037 860.711 634.644ZM859.029 643.139C862.474 647.991 869.169 648.278 873.815 644.925C876.937 642.671 878.608 639.333 878.827 635.854C881.017 637.609 883.581 638.651 886.745 638.024C891.514 637.079 895.287 632.98 894.618 627.977C893.207 617.424 880.386 613.242 870.58 613.093C872.932 609.165 875.4 605.302 877.8 601.403C878.893 599.626 876.385 597.793 875.137 599.509C869.608 607.11 864.522 615.097 860.662 623.689C857.981 629.654 854.74 637.097 859.029 643.139Z" fill="#221E1F" fill-opacity="0.12"/>
<path opacity="0.7" d="M1051.89 735.549C1055.17 731.437 1058.49 727.049 1062.87 724.037C1066.9 721.262 1074.93 718.81 1077.38 724.908C1079.94 731.286 1073.14 736.044 1069.15 739.717C1068.16 740.628 1068.25 742.049 1069.03 743.042C1073.08 748.152 1079.63 750.367 1080.9 757.657C1081.53 761.275 1079.19 764.614 1075.93 766.056C1072.8 767.436 1069.34 766.491 1066.43 765.009C1057.57 760.485 1051.28 752.024 1043.9 745.398C1046.58 742.132 1049.25 738.857 1051.89 735.549ZM1074.24 771.356C1080.57 770.503 1086.13 764.726 1085.59 758.16C1085.29 754.456 1083.32 751.055 1081.13 748.146C1079.15 745.513 1076.39 743.797 1074.08 741.583C1078.63 737.419 1083.24 732.915 1082.44 726.157C1081.69 719.86 1076.22 716.133 1070.12 716.539C1063.35 716.989 1057.76 721.567 1053.49 726.494C1049 731.687 1044.94 737.29 1040.93 742.896C1040.92 742.892 1040.92 742.887 1040.91 742.882C1039 741.388 1036.88 744.363 1038.31 746.057C1038.38 746.132 1038.44 746.206 1038.51 746.28C1037.69 747.416 1036.88 748.549 1036.05 749.675C1034.95 751.186 1037.42 753.26 1038.64 751.789C1039.4 750.866 1040.16 749.944 1040.92 749.022C1045.37 753.936 1050.27 758.607 1055.25 762.873C1060.46 767.328 1066.93 772.338 1074.24 771.356Z" fill="#221E1F" fill-opacity="0.12"/>
<path opacity="0.88" d="M1152.74 628.32C1156.57 627.926 1160.53 628.222 1164.33 628.807C1168.54 629.454 1172.81 630.603 1176.63 632.528C1177.05 636.7 1176.7 640.994 1175.65 645.05C1174.71 648.683 1173.18 652.882 1170.69 655.503C1168.72 657.574 1166.45 658.973 1163.65 659.193C1163.61 659.191 1163.38 659.2 1163.32 659.199C1163.14 659.195 1162.96 659.197 1162.78 659.187C1162.54 659.175 1162 659.118 1161.96 659.112C1161.93 659.107 1161.38 658.972 1161.16 658.904C1160.84 658.803 1160.36 658.606 1160.31 658.585C1159.02 657.932 1158.07 657.036 1157.27 655.816C1155.22 652.676 1155.76 647.682 1159.08 645.56C1159.89 645.041 1160.42 644.199 1160.21 643.204C1160.03 642.318 1159.17 641.468 1158.22 641.482C1154.42 641.542 1150.12 641.728 1146.86 639.428C1144.29 637.613 1143.19 634.44 1145.13 631.909C1146.81 629.699 1149.94 628.61 1152.74 628.32ZM1141.49 629.578C1138.73 633.303 1139.56 638.337 1142.72 641.535C1145.62 644.463 1149.42 645.424 1153.33 645.702C1151.81 648.347 1151.31 651.563 1152.09 654.624C1153.14 658.692 1156.5 662.334 1160.68 663.229C1164.59 664.068 1168.43 662.782 1171.58 660.467C1175.27 657.762 1177.41 653.515 1178.88 649.289C1180.89 643.493 1181.51 637.25 1180.8 631.166C1180.75 630.65 1180.44 630.218 1180.04 629.915C1179.88 629.547 1179.62 629.232 1179.25 629.041C1174.98 626.83 1170.38 625.494 1165.65 624.674C1161.05 623.873 1156.25 623.571 1151.6 624.121C1147.75 624.575 1143.83 626.428 1141.49 629.578Z" fill="#221E1F" fill-opacity="0.12"/>
<path opacity="0.93" d="M1401.73 754.113C1399.74 756.034 1397.36 757.623 1394.94 758.973C1392.27 760.472 1389.34 761.714 1386.32 762.314C1384.23 760.133 1382.52 757.542 1381.32 754.777C1380.24 752.3 1379.25 749.238 1379.5 746.646C1379.7 744.598 1380.37 742.799 1381.86 741.432C1381.88 741.416 1382.01 741.308 1382.04 741.284C1382.15 741.206 1382.25 741.123 1382.36 741.049C1382.5 740.949 1382.83 740.743 1382.86 740.728C1382.87 740.719 1383.25 740.55 1383.4 740.493C1383.63 740.409 1383.99 740.307 1384.02 740.299C1385.05 740.095 1385.98 740.181 1386.98 740.521C1389.53 741.391 1391.44 744.468 1390.5 747.14C1390.27 747.794 1390.34 748.507 1390.9 748.979C1391.39 749.402 1392.26 749.501 1392.79 749.075C1394.92 747.356 1397.28 745.344 1400.14 745.206C1402.41 745.097 1404.44 746.409 1404.46 748.701C1404.49 750.702 1403.19 752.709 1401.73 754.113ZM1407.56 748.413C1407.48 745.074 1404.77 742.586 1401.56 742.174C1398.62 741.797 1396.04 742.938 1393.69 744.513C1393.39 742.338 1392.24 740.29 1390.44 738.903C1388.04 737.06 1384.52 736.483 1381.76 737.826C1379.17 739.083 1377.56 741.514 1376.79 744.227C1375.9 747.397 1376.57 750.754 1377.61 753.803C1379.04 757.984 1381.45 761.798 1384.55 764.938C1384.81 765.206 1385.17 765.317 1385.54 765.309C1385.79 765.447 1386.08 765.509 1386.37 765.455C1389.78 764.816 1392.98 763.536 1396.02 761.906C1398.99 760.318 1401.85 758.365 1404.24 755.989C1406.22 754.028 1407.63 751.237 1407.56 748.413Z" fill="#221E1F" fill-opacity="0.12"/>
<path opacity="0.74" d="M6.3769 777.154C3.72701 776.488 1.15421 775.327 -1.23504 774.016C-3.88687 772.562 -6.45822 770.758 -8.53778 768.547C-7.8048 765.661 -6.5295 762.881 -4.84544 760.429C-3.33749 758.233 -1.29487 755.804 1.00398 754.66C2.82091 753.757 4.67307 753.374 6.5967 753.908C6.62122 753.918 6.7795 753.969 6.81514 753.983C6.9354 754.03 7.05869 754.073 7.17762 754.124C7.33417 754.19 7.68043 754.359 7.70532 754.373C7.72263 754.382 8.05964 754.607 8.18602 754.705C8.37555 754.85 8.64932 755.099 8.67379 755.123C9.37933 755.874 9.79763 756.703 10.0322 757.71C10.6403 760.303 9.06245 763.503 6.33694 764.114C5.67038 764.263 5.11198 764.697 5.00822 765.41C4.91461 766.046 5.28353 766.822 5.91676 767.042C8.46814 767.926 11.3816 768.846 12.9958 771.171C14.2691 773.006 14.2327 775.389 12.3295 776.609C10.6684 777.675 8.31439 777.641 6.3769 777.154ZM14.1882 779.047C16.9378 777.234 17.6058 773.673 16.2712 770.771C15.049 768.113 12.7449 766.549 10.2038 765.414C11.862 764.019 12.978 761.995 13.1955 759.762C13.4837 756.793 12.1267 753.547 9.5575 751.936C7.15296 750.427 4.28078 750.353 1.61151 751.131C-1.50665 752.04 -3.96401 754.354 -5.97033 756.817C-8.7209 760.195 -10.6475 764.211 -11.6553 768.441C-11.7418 768.799 -11.6456 769.161 -11.4476 769.462C-11.4307 769.746 -11.3327 770.02 -11.1344 770.236C-8.82115 772.749 -6.07817 774.756 -3.12313 776.452C-0.244903 778.104 2.88073 779.47 6.12013 780.234C8.79417 780.864 11.8621 780.58 14.1882 779.047Z" fill="#221E1F" fill-opacity="0.12"/>
<path opacity="0.84" d="M234.272 797.647C229.06 796.956 223.586 796.365 218.75 794.166C214.296 792.14 208.058 786.519 212.023 781.277C216.169 775.795 223.75 779.172 228.955 780.704C230.247 781.085 231.419 780.277 231.865 779.091C234.159 772.988 232.687 766.236 238.281 761.392C241.057 758.989 245.124 759.274 248.041 761.329C250.833 763.296 251.808 766.754 252.034 770.006C252.723 779.938 248.71 789.685 246.83 799.423C242.648 798.806 238.465 798.202 234.272 797.647ZM253.455 760.05C249.459 755.055 241.645 753.267 236.296 757.112C233.278 759.281 231.375 762.717 230.009 766.093C228.774 769.148 228.726 772.401 228.015 775.517C222.103 773.762 215.868 772.131 210.488 776.299C205.475 780.182 205.096 786.787 208.589 791.812C212.46 797.381 219.267 799.819 225.686 800.937C232.452 802.116 239.343 802.704 246.214 803.256C246.213 803.263 246.212 803.27 246.211 803.278C245.915 805.687 249.56 805.975 250.271 803.87C250.302 803.776 250.332 803.683 250.363 803.589C251.756 803.703 253.148 803.819 254.536 803.944C256.399 804.11 256.904 800.922 255.017 800.641C253.835 800.464 252.653 800.287 251.471 800.11C253.392 793.767 254.872 787.161 255.961 780.69C257.097 773.932 258.059 765.804 253.455 760.05Z" fill="#221E1F" fill-opacity="0.12"/>
<path opacity="0.84" d="M446.583 843.645C443.107 844.955 439.44 845.369 435.78 845.8C436.09 842.374 437.071 838.805 438.714 835.8C439.476 834.405 440.517 833.28 441.901 832.472C442.853 831.917 444.234 830.976 444.283 833.285C444.304 834.295 443.022 835.659 442.474 836.321C441.313 837.724 443.14 839.61 444.509 838.334C445.567 837.349 446.834 836.907 448.208 836.559C449.491 836.232 452.276 835.488 453.19 836.857C455.169 839.822 448.499 842.923 446.583 843.645ZM453.091 833.405C451.332 832.877 449.158 833.078 447.135 833.723C447.378 832.699 447.343 831.646 446.833 830.63C445.634 828.24 442.729 828.815 440.81 829.892C435.365 832.949 433.64 840.237 433.526 846.076C433.164 846.124 432.804 846.172 432.443 846.224C431.008 846.432 431.377 848.693 432.761 848.706C437.211 848.749 441.881 848.311 446.134 846.942C449.68 845.8 454.225 843.762 455.818 840.15C456.975 837.526 455.998 834.277 453.091 833.405Z" fill="#221E1F" fill-opacity="0.12"/>
<path opacity="0.72" d="M569.422 790.43C569.329 782.666 569.266 774.897 569.063 767.136C576.992 769.309 585.725 771.841 591.716 777.736C594.52 780.495 597.998 785.506 596.496 789.721C593.969 796.818 585.797 790.259 582.69 787.532C581.004 786.053 578.418 788.024 578.8 790.015C579.469 793.493 580.372 806.196 572.938 801.816C569.174 799.598 569.465 794.13 569.422 790.43ZM568.46 804.813C572.039 808.217 577.394 808.661 581.087 805.161C583.97 802.43 584.673 798.8 584.515 795.105C588.225 797.381 592.463 798.662 596.659 796.466C601.303 794.03 602.13 788.411 600.733 783.789C596.721 770.514 580.875 766.453 569.05 763.865C569.023 763.86 568.994 763.856 568.966 763.851C568.959 763.649 568.955 763.448 568.949 763.246C568.867 760.754 565.095 760.269 564.975 762.898C564.587 771.308 564.349 779.742 564.198 788.162C564.094 793.942 563.935 800.508 568.46 804.813Z" fill="#221E1F" fill-opacity="0.12"/>
<path opacity="0.86" d="M746.497 748.17C748.515 753.821 749.081 759.756 749.673 765.68C744.149 765.082 738.412 763.397 733.604 760.659C731.373 759.388 729.586 757.676 728.32 755.418C727.45 753.865 725.969 751.607 729.7 751.594C731.332 751.588 733.499 753.697 734.552 754.6C736.785 756.515 739.883 753.617 737.862 751.37C736.3 749.634 735.622 747.575 735.098 745.347C734.607 743.264 733.483 738.745 735.72 737.308C740.565 734.195 745.385 745.056 746.497 748.17ZM730.142 737.371C729.24 740.197 729.504 743.714 730.488 746.999C728.84 746.578 727.139 746.604 725.483 747.399C721.589 749.269 722.436 753.977 724.122 757.107C728.906 765.988 740.627 768.979 750.056 769.328C750.122 769.913 750.191 770.498 750.265 771.081C750.56 773.406 754.222 772.872 754.282 770.638C754.477 763.452 753.901 755.897 751.809 748.989C750.066 743.23 746.902 735.831 741.112 733.157C736.907 731.213 731.633 732.699 730.142 737.371Z" fill="#221E1F" fill-opacity="0.12"/>
<path opacity="0.8" d="M910.069 794.232C915.923 789.861 924.466 787.589 931.4 785.643C932.205 785.417 933.011 785.2 933.816 784.984C940.093 791.428 946.171 802.448 943.89 811.192C942.531 816.397 938.092 819.419 932.951 816.472C927.845 813.545 929.256 806.926 929.942 802.105C930.366 799.127 925.906 798.821 925.356 801.68C923.885 809.343 914.344 813.076 908.232 807.915C903.508 803.924 905.675 797.513 910.069 794.232ZM901.179 800.184C899.95 807.43 905.548 813.53 912.535 814.659C917.231 815.418 921.606 813.961 924.836 811.114C925.216 814.56 926.545 817.71 929.856 819.925C934.848 823.266 941.725 822.981 945.51 818.027C953.495 807.576 945.949 792.725 937.514 784.028C943 782.652 948.529 781.434 954.031 780.124C956.539 779.527 955.949 775.736 953.36 776.144C941.891 777.954 930.471 780.488 919.595 784.621C912.043 787.49 902.711 791.16 901.179 800.184Z" fill="#221E1F" fill-opacity="0.12"/>
<path opacity="0.78" d="M990.21 704.317C984.236 698.89 979.971 690.104 976.399 682.994C975.985 682.17 975.579 681.342 975.176 680.514C980.841 672.348 991.51 663.434 1001.47 664.064C1007.4 664.441 1011.62 668.617 1009.5 674.815C1007.41 680.968 999.932 680.834 994.559 681.106C991.24 681.274 991.848 686.176 995.064 686.168C1003.68 686.148 1009.75 695.709 1005.44 703.424C1002.1 709.39 994.695 708.39 990.21 704.317ZM998.539 712.703C1006.66 712.508 1012.09 705.152 1011.84 697.336C1011.68 692.084 1009.17 687.647 1005.41 684.744C1009.06 683.605 1012.2 681.5 1013.9 677.442C1016.47 671.325 1014.71 663.927 1008.54 660.867C995.527 654.41 981.012 665.724 973.359 676.705C970.71 671.046 968.223 665.306 965.644 659.616C964.468 657.022 960.48 658.461 961.469 661.182C965.849 673.239 971.004 685.089 977.779 696.013C982.482 703.597 988.43 712.945 998.539 712.703Z" fill="#221E1F" fill-opacity="0.12"/>
<path opacity="0.95" d="M1197.81 832.743C1195.05 834.022 1192.02 834.821 1189.03 835.36C1185.72 835.959 1182.23 836.2 1178.89 835.744C1177.5 832.735 1176.66 829.438 1176.4 826.139C1176.16 823.184 1176.23 819.653 1177.41 817.055C1178.35 815.001 1179.69 813.373 1181.72 812.488C1181.75 812.48 1181.92 812.413 1181.96 812.4C1182.1 812.356 1182.24 812.307 1182.38 812.268C1182.56 812.216 1182.98 812.119 1183.01 812.114C1183.03 812.11 1183.48 812.069 1183.66 812.064C1183.92 812.057 1184.33 812.08 1184.37 812.085C1185.51 812.239 1186.45 812.663 1187.36 813.37C1189.7 815.187 1190.57 819.058 1188.65 821.495C1188.17 822.091 1187.99 822.857 1188.4 823.547C1188.77 824.162 1189.63 824.575 1190.33 824.321C1193.16 823.299 1196.32 822.054 1199.35 822.935C1201.73 823.63 1203.37 825.716 1202.58 828.104C1201.89 830.188 1199.83 831.807 1197.81 832.743ZM1205.89 828.91C1207 825.417 1205.08 821.87 1201.9 820.295C1198.98 818.853 1195.89 819.114 1192.9 819.912C1193.36 817.544 1192.9 815.013 1191.53 812.929C1189.7 810.16 1186.25 808.304 1182.9 808.71C1179.77 809.089 1177.23 811.036 1175.47 813.578C1173.41 816.547 1172.9 820.269 1172.89 823.803C1172.88 828.651 1174.03 833.472 1176.12 837.836C1176.29 838.206 1176.63 838.451 1177.01 838.573C1177.23 838.807 1177.5 838.975 1177.82 839.023C1181.58 839.576 1185.36 839.391 1189.1 838.788C1192.75 838.201 1196.41 837.194 1199.75 835.586C1202.5 834.258 1204.95 831.865 1205.89 828.91Z" fill="#221E1F" fill-opacity="0.12"/>
<path opacity="0.88" d="M1430.7 818.69C1432.95 821.502 1434.43 824.758 1435.93 828.003C1432.68 828.743 1429.09 828.908 1425.83 828.294C1424.31 828.009 1422.97 827.387 1421.81 826.353C1421.01 825.642 1419.73 824.65 1421.84 823.914C1422.77 823.592 1424.41 824.365 1425.18 824.671C1426.82 825.322 1428.02 823.072 1426.43 822.193C1425.2 821.512 1424.42 820.477 1423.69 819.315C1423 818.23 1421.48 815.886 1422.47 814.634C1424.61 811.921 1429.46 817.141 1430.7 818.69ZM1419.32 815.759C1419.36 817.538 1420.19 819.482 1421.39 821.153C1420.38 821.236 1419.42 821.583 1418.63 822.358C1416.79 824.179 1418.19 826.685 1419.76 828.131C1424.2 832.235 1431.44 831.642 1436.86 829.998C1437.01 830.317 1437.16 830.635 1437.32 830.952C1437.94 832.213 1439.91 831.195 1439.51 829.916C1438.22 825.801 1436.41 821.627 1433.88 818.117C1431.76 815.19 1428.52 811.611 1424.72 811.225C1421.95 810.944 1419.25 812.817 1419.32 815.759Z" fill="#221E1F" fill-opacity="0.12"/>
<path opacity="0.89" d="M83.027 814.002C86.5815 817.754 90.3985 821.592 92.732 826.263C94.8812 830.567 96.1698 838.721 89.8978 840.273C83.3388 841.895 79.6363 834.625 76.6079 830.235C75.8561 829.145 74.4609 829.037 73.3864 829.667C67.8583 832.91 64.8063 838.979 57.5354 839.219C53.9273 839.338 50.9972 836.605 50.0398 833.229C49.1239 830 50.5184 826.754 52.3574 824.13C57.9752 816.116 67.0718 811.152 74.5319 804.876C77.3447 807.934 80.1672 810.983 83.027 814.002ZM45.1122 830.857C45.0751 837.145 49.9386 843.345 56.4038 843.718C60.0514 843.928 63.6309 842.479 66.7631 840.745C69.597 839.176 71.6457 836.72 74.1166 834.779C77.5474 839.778 81.3021 844.88 87.9903 845.025C94.2222 845.16 98.5983 840.349 99.0386 834.348C99.5267 827.699 95.8349 821.625 91.6224 816.8C87.1825 811.713 82.2823 807.001 77.3737 802.329C77.3789 802.323 77.3843 802.319 77.3895 802.314C79.1063 800.656 76.5001 798.181 74.6544 799.35C74.5731 799.402 74.4919 799.455 74.4106 799.507C73.4166 798.558 72.4252 797.608 71.4416 796.655C70.1211 795.375 67.7637 797.498 69.0305 798.88C69.8245 799.747 70.6184 800.613 71.4121 801.48C66.0199 805.137 60.8023 809.268 55.967 813.539C50.9178 817.999 45.1547 823.613 45.1122 830.857Z" fill="#221E1F" fill-opacity="0.12"/>
<path opacity="0.81" d="M203.464 887.133C203.83 891.633 203.086 896.056 202.363 900.477C198.465 898.967 194.623 896.625 191.662 893.699C190.288 892.34 189.323 890.749 188.842 888.861C188.512 887.562 187.876 885.633 190.59 886.35C191.777 886.664 192.942 888.619 193.531 889.48C194.781 891.306 197.597 889.804 196.565 887.777C195.768 886.211 195.676 884.583 195.729 882.861C195.778 881.252 195.841 877.749 197.747 877.141C201.874 875.822 203.262 884.653 203.464 887.133ZM193.681 876.1C192.475 877.978 191.982 880.586 192.058 883.164C190.942 882.537 189.7 882.225 188.342 882.481C185.148 883.081 184.847 886.667 185.463 889.271C187.21 896.656 195.146 901.113 201.93 903.203C201.865 903.641 201.8 904.079 201.741 904.517C201.502 906.264 204.268 906.589 204.747 904.977C206.287 899.793 207.34 894.19 207.165 888.763C207.019 884.238 206.161 878.245 202.474 875.174C199.796 872.942 195.674 872.995 193.681 876.1Z" fill="#221E1F" fill-opacity="0.12"/>
<path opacity="0.87" d="M434.616 857.345C434.748 861.915 433.76 866.349 432.795 870.781C428.933 869.047 425.172 866.475 422.333 863.36C421.015 861.913 420.124 860.252 419.738 858.317C419.473 856.987 418.931 855.002 421.638 855.871C422.822 856.251 423.896 858.29 424.447 859.192C425.613 861.105 428.541 859.735 427.605 857.631C426.882 856.005 426.876 854.354 427.02 852.615C427.155 850.991 427.405 847.452 429.364 846.937C433.608 845.822 434.543 854.826 434.616 857.345ZM425.307 845.669C423.988 847.505 423.351 850.115 423.291 852.727C422.196 852.034 420.957 851.653 419.57 851.839C416.308 852.277 415.813 855.888 416.299 858.553C417.674 866.114 425.463 871.041 432.213 873.515C432.124 873.954 432.035 874.394 431.952 874.833C431.618 876.588 434.397 877.063 434.967 875.458C436.8 870.297 438.162 864.687 438.272 859.189C438.365 854.605 437.814 848.5 434.249 845.198C431.659 842.8 427.487 842.635 425.307 845.669Z" fill="#221E1F" fill-opacity="0.12"/>
<path opacity="0.83" d="M603.796 891.123C599.691 888.318 596.421 884.616 593.139 880.933C597.133 878.644 601.8 876.978 606.356 876.472C608.471 876.238 610.502 876.515 612.451 877.412C613.791 878.03 615.883 878.822 613.388 880.648C612.297 881.447 609.817 881.088 608.671 880.996C606.242 880.8 605.576 884.251 608.026 884.773C609.919 885.176 611.376 886.226 612.812 887.464C614.156 888.621 617.11 891.103 616.31 893.156C614.579 897.602 606.059 892.669 603.796 891.123ZM620.019 890.397C619.247 888.063 617.357 885.834 615.098 884.112C616.408 883.592 617.535 882.745 618.258 881.406C619.957 878.256 617.097 875.513 614.442 874.236C606.91 870.613 597.596 874.316 591.106 878.674C590.777 878.314 590.446 877.956 590.113 877.601C588.782 876.186 586.588 878.327 587.635 879.854C591.004 884.766 595.07 889.55 599.836 893.162C603.81 896.173 609.534 899.592 614.717 898.565C618.483 897.819 621.295 894.255 620.019 890.397Z" fill="#221E1F" fill-opacity="0.12"/>
<path opacity="0.87" d="M810.497 885.172C814.236 888.813 816.793 894.586 818.941 899.261C819.19 899.803 819.433 900.347 819.675 900.891C815.83 906.04 808.735 911.559 802.312 910.927C798.488 910.55 795.86 907.756 797.364 903.799C798.858 899.871 803.686 900.126 807.164 900.071C809.313 900.038 809.03 896.857 806.952 896.789C801.381 896.607 797.681 890.293 800.639 885.405C802.927 881.625 807.692 882.438 810.497 885.172ZM805.305 879.565C800.056 879.508 796.378 884.138 796.362 889.194C796.351 892.591 797.868 895.515 800.238 897.476C797.849 898.129 795.775 899.419 794.582 902.002C792.784 905.897 793.753 910.717 797.671 912.834C805.936 917.299 815.57 910.316 820.763 903.394C822.347 907.11 823.824 910.875 825.363 914.61C826.064 916.312 828.673 915.472 828.096 913.692C825.537 905.803 822.474 898.029 818.343 890.818C815.475 885.811 811.843 879.637 805.305 879.565Z" fill="#221E1F" fill-opacity="0.12"/>
<path opacity="0.96" d="M822.569 903.345C820.237 901.644 818.176 899.489 816.355 897.26C814.333 894.786 812.529 892.002 811.367 889.013C813.227 886.476 815.576 884.258 818.196 882.524C820.542 880.969 823.503 879.398 826.208 879.188C828.344 879.022 830.31 879.38 831.983 880.664C832.003 880.684 832.138 880.796 832.167 880.824C832.266 880.918 832.37 881.008 832.466 881.106C832.594 881.232 832.866 881.535 832.885 881.558C832.898 881.574 833.139 881.928 833.224 882.073C833.352 882.291 833.522 882.643 833.536 882.676C833.93 883.691 834.012 884.668 833.843 885.747C833.412 888.528 830.601 891.037 827.69 890.557C826.978 890.44 826.259 890.644 825.875 891.301C825.532 891.887 825.586 892.793 826.12 893.259C828.269 895.134 830.758 897.188 831.419 900.104C831.94 902.405 830.961 904.725 828.614 905.167C826.566 905.553 824.274 904.588 822.569 903.345ZM829.47 908.29C832.881 907.602 834.944 904.379 834.785 901.008C834.64 897.922 833.002 895.478 830.963 893.361C833.139 892.651 835.033 891.11 836.129 889.009C837.587 886.215 837.542 882.499 835.663 879.904C833.905 877.475 831.121 876.266 828.199 875.972C824.785 875.628 821.463 876.922 818.523 878.541C814.493 880.761 811.017 883.931 808.356 887.676C808.129 887.992 808.08 888.384 808.155 888.758C808.059 889.043 808.047 889.349 808.155 889.64C809.427 893.017 811.319 896.068 813.542 898.898C815.707 901.655 818.228 904.23 821.099 906.26C823.468 907.935 826.585 908.871 829.47 908.29Z" fill="#221E1F" fill-opacity="0.12"/>
<path opacity="0.97" d="M1147.29 929.304C1150.33 935.91 1153.34 942.532 1156.47 949.093C1148.86 950.254 1140.43 951.414 1133.06 948.653C1129.61 947.361 1124.73 944.399 1124.41 940.221C1123.86 933.188 1133.35 935.686 1137.05 936.836C1139.05 937.459 1140.52 934.788 1139.43 933.23C1137.53 930.51 1131.92 919.988 1139.95 920.903C1144.02 921.367 1145.85 926.155 1147.29 929.304ZM1142.64 916.634C1138.28 915.085 1133.53 916.744 1131.71 921.145C1130.28 924.579 1131.06 927.953 1132.6 931.053C1128.56 930.519 1124.45 931.037 1121.7 934.514C1118.65 938.366 1120.09 943.488 1123.04 946.909C1131.53 956.737 1146.63 954.176 1157.73 951.886C1157.76 951.88 1157.78 951.873 1157.81 951.866C1157.89 952.036 1157.97 952.207 1158.05 952.377C1159.07 954.477 1162.48 953.456 1161.58 951.161C1158.71 943.819 1155.7 936.514 1152.63 929.254C1150.51 924.27 1148.15 918.593 1142.64 916.634Z" fill="#221E1F" fill-opacity="0.12"/>
<path opacity="0.96" d="M1146.46 961.859C1142.75 958.714 1139.95 954.783 1137.14 950.869C1141.26 949.052 1145.96 947.911 1150.44 947.885C1152.52 947.873 1154.46 948.35 1156.27 949.42C1157.5 950.157 1159.46 951.14 1156.85 952.66C1155.7 953.325 1153.33 952.723 1152.23 952.516C1149.89 952.078 1148.89 955.364 1151.21 956.12C1153.01 956.706 1154.32 957.874 1155.59 959.225C1156.78 960.486 1159.39 963.199 1158.41 965.112C1156.27 969.256 1148.5 963.592 1146.46 961.859ZM1162.29 962.81C1161.78 960.464 1160.17 958.105 1158.15 956.201C1159.48 955.829 1160.66 955.122 1161.5 953.894C1163.47 951.007 1160.97 948.049 1158.52 946.537C1151.58 942.248 1142.15 944.895 1135.4 948.466C1135.11 948.083 1134.83 947.701 1134.54 947.322C1133.39 945.812 1131.04 947.668 1131.9 949.259C1134.68 954.375 1138.14 959.439 1142.4 963.435C1145.95 966.767 1151.17 970.673 1156.31 970.205C1160.04 969.865 1163.14 966.689 1162.29 962.81Z" fill="#221E1F" fill-opacity="0.12"/>
<path opacity="0.97" d="M1337.36 859.315C1337.15 863.158 1336.24 867.026 1335.07 870.682C1333.77 874.739 1331.97 878.779 1329.47 882.249C1325.28 882.011 1321.09 880.995 1317.25 879.325C1313.81 877.831 1309.9 875.659 1307.7 872.788C1305.97 870.519 1304.94 868.061 1305.16 865.258C1305.17 865.222 1305.2 864.989 1305.21 864.936C1305.24 864.757 1305.26 864.575 1305.3 864.397C1305.35 864.163 1305.49 863.639 1305.51 863.601C1305.51 863.574 1305.73 863.048 1305.84 862.847C1305.99 862.546 1306.26 862.1 1306.28 862.06C1307.13 860.883 1308.16 860.082 1309.49 859.487C1312.92 857.949 1317.76 859.271 1319.34 862.875C1319.73 863.756 1320.48 864.412 1321.49 864.363C1322.39 864.322 1323.37 863.603 1323.5 862.669C1324.04 858.904 1324.53 854.628 1327.31 851.772C1329.5 849.518 1332.81 848.928 1335.01 851.231C1336.93 853.242 1337.51 856.505 1337.36 859.315ZM1337.88 848.006C1334.63 844.692 1329.53 844.726 1325.87 847.351C1322.53 849.755 1320.99 853.361 1320.1 857.179C1317.73 855.261 1314.63 854.262 1311.48 854.562C1307.3 854.961 1303.18 857.709 1301.64 861.695C1300.2 865.425 1300.87 869.415 1302.66 872.897C1304.76 876.964 1308.62 879.739 1312.56 881.851C1317.97 884.746 1324.04 886.331 1330.16 886.587C1330.68 886.611 1331.15 886.38 1331.51 886.026C1331.9 885.926 1332.25 885.717 1332.5 885.385C1335.35 881.511 1337.39 877.179 1338.94 872.638C1340.45 868.215 1341.5 863.526 1341.69 858.842C1341.84 854.976 1340.62 850.81 1337.88 848.006Z" fill="#221E1F" fill-opacity="0.12"/>
</g>
<defs>
<clipPath id="clip0_10780_63915">
<rect width="1440" height="952" fill="none"/>
</clipPath>
</defs>
</svg>
