<svg width="580" height="282" viewBox="0 0 580 282" fill="none" xmlns="http://www.w3.org/2000/svg">
<path d="M35.7814 0.430281L533.917 7.38355C552.992 7.64983 567.991 15.5304 567.358 24.9539C566.724 34.3773 551.607 259.155 551.607 259.155C551.001 268.165 536.275 275.378 518.034 275.598L35.6496 281.418C16.3099 281.652 0.376942 273.969 0.376941 264.411L0.376927 17.4357C0.37706 7.85191 16.392 0.159632 35.7814 0.430281Z" fill="#CC4B46"/>
<path d="M38.877 278.236L529.608 263.116C549.001 262.518 563.963 245.84 562.459 226.497L547.515 34.2749C546.124 16.3834 531.067 2.65318 513.123 2.91357L45.0303 9.70654C26.9527 9.96898 12.2421 24.3328 11.5488 42.3989L3.85449 242.949C3.09915 262.637 19.1837 278.843 38.877 278.236Z" stroke="#0C0902" stroke-opacity="0.28" stroke-width="4"/>
</svg>
