<svg width="580" height="228" viewBox="0 0 580 228" fill="none" xmlns="http://www.w3.org/2000/svg">
<path d="M18.2539 42.7008C19.0235 23.5109 34.7214 8.30422 53.9261 8.14477L521.274 4.26466C539.47 4.11358 554.919 17.5658 557.271 35.6106L574.593 168.517C577.439 190.352 560.19 209.603 538.174 209.162L48.7224 199.362C28.5615 198.958 12.6638 182.075 13.472 161.926L18.2539 42.7008Z" fill="#CC4B46"/>
<path d="M530.634 2.63379C548.78 2.29853 563.99 16.2744 565.188 34.3838L575.341 187.873C576.681 208.135 560.078 225.047 539.795 224.079L37.8467 200.122C18.4423 199.196 3.75766 182.227 5.62598 162.891L17.2842 42.2305C18.9452 25.0397 33.2302 11.825 50.498 11.5059L530.634 2.63379Z" stroke="#0C0902" stroke-opacity="0.28" stroke-width="4"/>
</svg>
