<svg width="384" height="646" viewBox="0 0 384 646" fill="none" xmlns="http://www.w3.org/2000/svg">
<path d="M7 42.0643C7 21.9788 23.4363 5.77811 43.5198 6.06811L341.681 10.3735C361.492 10.6595 377.348 26.8999 377.159 46.712L371.857 604.383C371.669 624.131 355.607 640.041 335.858 640.041H43C23.1178 640.041 7 623.923 7 604.041L7 42.0643Z" fill="#00858D"/>
<path d="M52.6301 4.80249L341.199 10.6619C359.976 11.0431 374.999 26.3733 374.999 45.1541L374.999 597.768C374.999 616.458 360.117 631.749 341.435 632.256L36.9856 640.51C17.1922 641.047 1.00913 624.849 1.56372 605.056L17.4436 38.3289C17.9746 19.3866 33.6843 4.41799 52.6301 4.80249Z" stroke="#00646A" stroke-width="3"/>
</svg>
