<svg width="386" height="646" viewBox="0 0 386 646" fill="none" xmlns="http://www.w3.org/2000/svg">
<path d="M353.196 594.76C352.538 614.157 336.624 629.541 317.216 629.541H37.501C17.6369 629.541 1.52667 613.451 1.50103 593.587L0.797308 48.2049C0.771321 28.0652 17.272 11.8215 37.4088 12.1636L336.142 17.2392C356.259 17.5811 372.191 34.345 371.51 54.4536L353.196 594.76Z" fill="#CC4B46"/>
<path d="M312.055 633.541H36.0822C17.0283 633.541 1.58215 618.095 1.58215 599.041L1.58215 47.8494C1.58229 28.4956 17.4998 12.9282 36.8488 13.3582L332.551 19.9285C351.789 20.3561 366.958 36.4398 366.262 55.6697L346.532 600.29C345.86 618.845 330.623 633.541 312.055 633.541Z" stroke="#993834" stroke-width="3"/>
</svg>
