<svg width="1604" height="482" viewBox="0 0 1604 482" fill="none" xmlns="http://www.w3.org/2000/svg">
<path fill-rule="evenodd" clip-rule="evenodd" d="M321.396 294.896C317.584 298.05 313.759 300.879 309.921 303.388C297.838 311.029 283.538 314.85 267.021 314.85C250.992 314.85 237.309 310.538 225.967 301.909C214.871 293.275 204.271 278.484 194.163 257.525C186.025 240.763 179.617 228.434 174.929 220.542C170.246 212.408 165.563 206.613 160.879 203.163C156.438 199.708 150.892 197.613 144.233 196.875C143.25 202.05 140.413 218.325 135.729 245.692C133.754 258.021 132.525 265.538 132.029 268.25C129.567 283.292 124.633 294.879 117.238 303.017C109.842 310.904 98.6209 314.85 83.5834 314.85C67.0626 314.85 52.3917 310.042 39.5709 300.425C26.9959 290.567 17.2583 277.004 10.3542 259.746C3.45001 242.242 1.76326e-07 222.392 1.76326e-07 200.204C1.76326e-07 158.779 7.15002 123.029 21.45 92.9501C35.9959 62.8709 56.2126 39.9417 82.1043 24.1625C108.238 8.13752 138.317 0.120831 172.342 0.120831C196.013 0.120831 215.859 3.69586 231.884 10.8459C247.913 17.9959 259.746 27.8584 267.388 40.4334C275.279 53.0084 279.225 67.1876 279.225 82.9667C279.225 96.7709 275.896 110.333 269.238 123.646C262.829 136.713 253.088 148.304 240.021 158.413C226.954 168.521 211.05 176.042 192.313 180.971C204.146 184.175 213.271 189.354 219.679 196.504C226.092 203.654 232.5 214.134 238.913 227.942C245.817 242.734 252.596 253.584 259.254 260.484C266.154 267.388 274.046 270.842 282.921 270.842C290.813 270.842 298.334 268.25 305.484 263.075C307.171 261.792 308.967 260.3 310.863 258.604C310.813 257.279 310.788 255.934 310.788 254.567C310.788 234.846 315.121 216.229 323.788 198.725C332.45 180.971 343.925 166.796 358.213 156.192C372.734 145.346 388.071 139.921 404.23 139.921C409.384 139.921 412.775 141.029 414.417 143.25C416.292 145.221 417.813 148.921 418.984 154.342C423.9 153.358 429.055 152.863 434.438 152.863C445.913 152.863 451.65 157.179 451.65 165.808C451.65 170.988 449.896 183.313 446.384 202.792C440.996 231.146 438.305 250.871 438.305 261.967C438.305 265.663 439.121 268.621 440.763 270.842C442.638 273.059 444.98 274.171 447.788 274.171C452.238 274.171 457.625 271.213 463.946 265.292C470.271 259.129 478.817 249.267 489.592 235.709C491.05 233.913 492.605 232.588 494.255 231.725C494.6 228.113 494.93 224.509 495.238 220.913C496.717 207.6 499.059 187.75 502.263 161.371C503.25 154.221 505.963 149.042 510.4 145.838C514.838 142.383 521.617 140.658 530.742 140.658C538.138 140.658 542.946 141.771 545.163 143.988C547.63 146.208 548.863 149.288 548.863 153.233C548.863 164.575 544.796 195.888 536.659 247.171L532.959 272.692C550.834 259.284 567.292 247.496 582.334 237.329C585.6 230.309 590.421 223.725 596.805 217.584C609.871 205.009 628.609 192.929 653.017 181.342L592.367 182.821C586.942 183.067 582.751 181.217 579.792 177.271C577.08 173.079 575.725 168.15 575.725 162.479C575.725 156.563 577.08 151.383 579.792 146.946C582.751 142.263 586.696 139.921 591.626 139.921C602.967 139.921 618.13 140.783 637.117 142.508C641.063 142.754 648.213 143.246 658.567 143.988C669.167 144.725 678.046 145.096 685.196 145.096C687.659 145.096 692.346 144.108 699.246 142.138C700.48 141.892 702.821 141.275 706.276 140.288C709.971 139.304 713.055 138.808 715.522 138.808C719.467 138.808 722.672 140.533 725.138 143.988C727.851 147.438 729.205 152.742 729.205 159.892C729.205 167.779 727.355 173.942 723.659 178.383C719.959 182.821 714.163 186.763 706.276 190.217C683.838 199.833 665.226 210.188 650.43 221.284C635.638 232.129 628.242 242.979 628.242 253.829C628.242 260.729 631.446 266.4 637.855 270.842C644.267 275.279 653.759 277.496 666.334 277.496C680.138 277.496 694.071 274.046 708.126 267.142C719.48 261.659 729.905 253.921 739.397 243.929C739.334 239.484 739.305 234.771 739.305 229.788C739.305 191.821 743.126 186.888 750.772 145.713C758.659 104.538 770.126 70.0209 785.163 42.1584C800.451 14.05 818.697 0 839.901 0C867.638 0 871.705 18.5 871.705 37.5C871.705 69.5271 863.092 91.4501 844.172 115.013C825.655 138.083 815.442 147.629 789.767 188.125C789.026 200.946 784.055 215.121 784.055 228.679C795.888 197.858 809.451 175.546 824.738 161.742C840.022 147.688 854.322 140.658 867.638 140.658C879.963 140.658 889.826 144.85 897.222 153.233C904.867 161.617 908.688 171.971 908.688 184.3C908.688 197.858 905.238 210.313 898.334 221.654C891.43 232.996 879.597 243.104 862.83 251.979C863.817 258.638 866.776 264.059 871.705 268.25C876.884 272.196 883.047 274.171 890.197 274.171C897.838 274.171 905.238 271.213 912.388 265.292C916.397 261.975 921.109 257.413 926.513 251.609C925.822 246.929 925.476 242.121 925.476 237.184C925.476 218.446 929.051 201.804 936.201 187.258C943.351 172.463 953.213 161 965.788 152.863C978.363 144.479 992.293 140.288 1007.58 140.288C1026.32 140.288 1041.36 146.821 1052.7 159.892C1064.29 172.713 1071.07 188.613 1073.04 207.6C1081.63 207.05 1091.44 205.554 1102.47 203.108C1104.74 188.842 1108.02 174.929 1112.31 161.371C1114.53 154.221 1118.1 149.042 1123.03 145.838C1128.21 142.383 1135.36 140.658 1144.48 140.658C1149.41 140.658 1152.86 141.275 1154.84 142.508C1156.81 143.742 1157.8 146.083 1157.8 149.533C1157.8 153.479 1155.95 162.354 1152.25 176.163C1149.78 186.025 1147.81 194.654 1146.33 202.05C1144.85 209.45 1143.62 218.571 1142.63 229.421C1150.77 208.217 1159.89 190.958 1170 177.642C1180.11 164.329 1189.97 154.838 1199.59 149.167C1209.45 143.496 1218.45 140.658 1226.58 140.658C1242.61 140.658 1250.63 148.671 1250.63 164.7C1250.63 174.313 1247.91 191.696 1242.49 216.846C1237.81 238.296 1235.46 252.471 1235.46 259.375C1235.46 269.238 1239.03 274.171 1246.18 274.171C1251.12 274.171 1256.91 271.209 1263.57 265.292C1268.47 260.917 1274.49 254.679 1281.62 246.575C1282.11 233.717 1283.25 221.713 1285.05 210.559C1287.52 195.025 1291.58 178.629 1297.26 161.371C1299.72 153.975 1303.17 148.671 1307.61 145.467C1312.05 142.263 1319.08 140.658 1328.69 140.658C1334.12 140.658 1337.81 141.521 1339.79 143.25C1342.01 144.975 1343.11 147.563 1343.11 151.013C1343.11 152.988 1341.76 159.646 1339.05 170.988C1336.58 180.108 1334.61 188.367 1333.13 195.763C1331.16 205.875 1329.43 215.613 1327.95 224.979C1326.47 234.104 1325.73 241.625 1325.73 247.542C1325.73 256.909 1328.32 261.596 1333.5 261.596C1337.2 261.596 1341.76 257.896 1347.18 250.5C1352.86 243.104 1358.77 231.884 1364.93 216.846C1371.35 201.804 1377.51 183.313 1383.43 161.371C1385.4 153.975 1388.36 148.671 1392.3 145.467C1396.49 142.263 1402.66 140.658 1410.79 140.658C1416.46 140.658 1420.41 141.4 1422.63 142.879C1424.85 144.358 1425.96 146.825 1425.96 150.275C1425.96 156.438 1422.75 177.642 1416.34 213.888L1406.73 273.429C1423.53 260.767 1439.96 249.075 1455.99 238.346C1454.43 214.967 1453.65 193.871 1453.65 175.054V162.108C1453.9 153.971 1456.11 148.3 1460.31 145.096C1464.5 141.892 1470.78 140.288 1479.17 140.288C1485.58 140.288 1490.26 141.767 1493.22 144.725C1496.43 147.438 1498.03 152.125 1498.03 158.779C1498.03 187.133 1499.76 223.996 1503.21 269.363C1513.81 251.117 1522.93 234.471 1530.57 219.434C1538.46 204.146 1546.97 184.054 1556.09 159.15C1558.81 151.754 1562.38 146.821 1566.82 144.358C1571.26 141.646 1576.8 140.288 1583.46 140.288C1597.02 140.288 1603.8 144.604 1603.8 153.233C1603.8 156.192 1602.81 160.258 1600.84 165.438C1580.87 212.038 1562.01 249.638 1544.26 278.238C1535.63 292.292 1527.37 301.904 1519.48 307.084C1511.59 312.263 1502.96 314.85 1493.59 314.85C1483.23 314.85 1475.1 311.029 1469.18 303.384C1464.61 297.288 1461.36 288.388 1459.43 276.688L1399.33 317.071C1389.96 368.104 1377.63 408.171 1362.35 437.267C1347.31 466.605 1328.08 481.275 1304.65 481.275C1292.08 481.275 1281.85 477.33 1273.96 469.442C1266.07 461.796 1262.12 451.688 1262.12 439.113C1262.12 427.525 1264.71 415.692 1269.89 403.609C1275.31 391.529 1285.18 377.6 1299.48 361.821C1314.02 346.288 1334.48 328.413 1360.87 308.192L1361.98 299.688C1363.7 290.567 1365.68 277.496 1367.89 260.484C1362.96 278.238 1356.06 291.796 1347.18 301.167C1338.31 310.288 1328.94 314.85 1319.08 314.85C1307.98 314.85 1298.86 309.796 1291.71 299.688C1289.56 296.459 1287.74 292.988 1286.26 289.279C1280.97 294.104 1275.51 298.438 1269.86 302.275C1257.78 310.659 1243.97 314.85 1228.43 314.85C1215.86 314.85 1206.37 311.275 1199.96 304.125C1193.55 296.729 1190.34 286.125 1190.34 272.321C1190.34 265.417 1192.07 253.088 1195.52 235.338C1198.73 219.804 1200.33 209.079 1200.33 203.163C1200.33 199.217 1198.97 197.242 1196.26 197.242C1193.06 197.242 1188.49 201.433 1182.58 209.817C1176.91 217.954 1170.99 228.804 1164.82 242.363C1158.91 255.925 1154.1 270.225 1150.4 285.263C1147.69 296.85 1144.48 304.742 1140.78 308.934C1137.33 312.879 1131.78 314.85 1124.14 314.85C1114.77 314.85 1108.11 309.921 1104.17 300.059C1100.47 290.196 1098.62 274.417 1098.62 252.717C1098.62 249.479 1098.67 246.259 1098.76 243.05C1089.68 244.888 1080.11 246.013 1070.08 246.429C1065.4 267.142 1056.15 283.784 1042.34 296.359C1028.54 308.688 1012.88 314.85 995.376 314.85C980.58 314.85 967.884 311.275 957.28 304.125C950.172 299.217 944.222 293.2 939.434 286.079C933.047 292.484 926.622 298.009 920.155 302.646C908.813 310.784 895.376 314.85 879.842 314.85C860.855 314.85 845.572 309.425 833.984 298.579C822.392 287.729 816.601 273.304 816.601 255.309C816.601 245.692 821.53 238.788 831.392 234.596C842.242 229.913 850.009 224.983 854.692 219.804C859.376 214.379 861.722 207.846 861.722 200.204C861.722 195.763 860.734 192.438 858.759 190.217C857.034 188 854.817 186.888 852.105 186.888C845.447 186.888 838.051 191.696 829.913 201.313C822.026 210.929 814.626 223.379 807.726 238.667C800.822 253.704 795.397 269.238 791.451 285.263C788.738 296.854 785.534 304.742 781.834 308.934C778.384 312.879 772.838 314.85 765.192 314.85C757.551 314.85 751.88 312.138 748.18 306.713C745.563 302.413 743.584 296.413 742.242 288.709C734.542 295.284 726.005 300.917 716.63 305.604C699.617 314.234 680.388 318.55 658.938 318.55C642.171 318.55 627.626 316.084 615.296 311.15C602.967 305.975 593.476 299.071 586.817 290.442C584.188 286.8 582.101 282.992 580.546 279.021C565.53 289.084 547.325 301.521 525.934 316.329C516.317 367.613 503.867 407.925 488.58 437.267C473.292 466.605 453.817 481.275 430.146 481.275C417.325 481.275 407.092 477.33 399.45 469.442C391.559 461.796 387.617 451.688 387.617 439.113C387.617 421.609 394.396 402.871 407.955 382.9C421.517 363.175 447.034 338.767 484.513 309.675L487.1 290.813C487.275 289.625 487.446 288.438 487.613 287.254C482.45 292.646 477.138 297.529 471.675 301.909C460.905 310.538 450.48 314.85 440.413 314.85C432.684 314.85 425.542 312.138 418.984 306.717C412.659 301.046 407.859 293.4 404.58 283.784C392.405 304.496 377.063 314.85 358.563 314.85C344.042 314.85 332.45 309.304 323.788 298.209C322.95 297.138 322.154 296.034 321.396 294.896ZM1308.72 445.4C1314.88 445.4 1321.79 438.25 1329.43 423.95C1337.08 409.65 1344.72 385.859 1352.36 352.575C1333.38 368.6 1319.57 383.146 1310.94 396.213C1302.56 409.53 1298.36 421.117 1298.36 430.979C1298.36 435.171 1299.11 438.621 1300.58 441.334C1302.31 444.046 1305.02 445.4 1308.72 445.4ZM93.1959 196.504C84.8168 196.504 79.0209 194.533 75.8167 190.588C72.8584 186.642 71.3793 182.204 71.3793 177.271C71.3793 171.354 73.2251 166.671 76.9251 163.221C80.8709 159.767 85.3084 158.042 90.2376 158.042H99.4834C103.429 133.879 107.129 113.046 110.579 95.5376C113.783 79.5126 124.142 71.5001 141.646 71.5001C155.7 71.5001 162.725 77.7876 162.725 90.3626C162.725 93.0751 162.604 95.1709 162.358 96.6501L151.263 158.042C164.575 157.3 176.659 154.096 187.504 148.425C198.6 142.754 207.354 134.867 213.763 124.754C220.421 114.646 223.75 103.183 223.75 90.3626C223.75 74.8292 218.446 62.6251 207.846 53.75C197.246 44.8709 181.713 40.4334 161.246 40.4334C137.083 40.4334 115.879 46.475 97.6376 58.5542C79.6376 70.3917 65.5834 88.1417 55.4751 111.813C45.3667 135.233 40.3126 163.833 40.3126 197.613C40.3126 213.392 41.9126 226.954 45.1209 238.296C48.3251 249.638 52.2709 258.142 56.9542 263.813C61.6376 269.484 66.0751 272.321 70.2667 272.321C73.4709 272.321 76.0626 270.717 78.0334 267.513C80.2543 264.309 81.9792 259.129 83.2126 251.979L93.1959 196.504ZM839.901 29.5C814.458 14 772.958 135.5 785.163 143.988C801.252 135.289 865.343 45 839.901 29.5ZM371.209 277.5C376.363 277.5 381.28 274.292 385.963 267.884C390.646 261.471 394.042 252.967 396.15 242.363L409.146 174.317C399.313 174.563 390.18 178.504 381.746 186.15C373.55 193.546 366.992 203.408 362.075 215.738C357.159 228.063 354.7 241.129 354.7 254.938C354.7 262.584 356.105 268.254 358.913 271.95C361.959 275.65 366.059 277.5 371.209 277.5ZM434.213 445.4C440.625 445.4 447.65 438.129 455.296 423.579C462.938 409.034 470.088 385.613 476.746 353.313C458.009 369.338 444.571 383.763 436.434 396.584C428.05 409.65 423.859 421.117 423.859 430.979C423.859 440.592 427.313 445.4 434.213 445.4ZM998.334 275.646C1006.22 275.646 1013.01 272.442 1018.68 266.034C1024.59 259.621 1028.54 250.375 1030.51 238.296C1022.87 233.117 1016.95 226.338 1012.76 217.954C1008.81 209.571 1006.84 200.696 1006.84 191.325C1006.84 187.379 1007.21 183.438 1007.95 179.492H1006.1C996.238 179.492 987.98 184.3 981.322 193.917C974.909 203.283 971.705 216.596 971.705 233.859C971.705 247.417 974.293 257.771 979.472 264.921C984.897 272.071 991.184 275.646 998.334 275.646ZM973.926 116.25C966.034 116.25 959.872 114.154 955.434 109.963C950.997 105.525 948.776 98.7459 948.776 89.6209C948.776 79.7584 951.363 72.1167 956.542 66.6917C961.967 61.0209 969.118 58.1876 977.993 58.1876C985.884 58.1876 992.047 60.4042 996.484 64.8417C1000.92 69.0334 1003.14 75.6917 1003.14 84.8126C1003.14 94.6751 1000.43 102.442 995.005 108.113C989.826 113.538 982.801 116.25 973.926 116.25ZM1050.85 116.25C1042.96 116.25 1036.8 114.154 1032.36 109.963C1027.92 105.525 1025.7 98.7459 1025.7 89.6209C1025.7 79.7584 1028.29 72.1167 1033.47 66.6917C1038.89 61.0209 1046.04 58.1876 1054.92 58.1876C1062.81 58.1876 1068.97 60.4042 1073.41 64.8417C1077.85 69.0334 1080.07 75.6917 1080.07 84.8126C1080.07 94.6751 1077.36 102.442 1071.93 108.113C1066.75 113.538 1059.73 116.25 1050.85 116.25ZM528.892 116.25C518.538 116.25 510.771 113.908 505.592 109.225C500.413 104.292 497.825 97.5126 497.825 88.8834C497.825 80.2542 501.155 73.1042 507.813 67.4334C514.717 61.5167 523.221 58.5584 533.33 58.5584C542.455 58.5584 549.85 60.7751 555.521 65.2126C561.192 69.6501 564.026 75.9376 564.026 84.0751C564.026 93.9376 560.821 101.825 554.409 107.746C548.001 113.417 539.492 116.25 528.892 116.25Z" fill="white"/>
</svg>
