<svg width="385" height="656" viewBox="0 0 385 656" fill="none" xmlns="http://www.w3.org/2000/svg">
<path d="M10.3661 35.8952C10.7111 15.8601 27.3489 -0.037354 47.3789 0.529362L336.653 8.71389C355.829 9.25644 371.211 24.7402 371.626 43.9191L384.024 615.694C384.466 636.078 367.909 652.76 347.523 652.471L35.9397 648.057C16.0165 647.774 0.112038 631.363 0.455101 611.44L10.3661 35.8952Z" fill="#005867"/>
<path d="M52.7436 4.74878L339.125 11.4187C357.695 11.8512 372.589 26.9081 372.82 45.4812L379.865 612.791C380.109 632.479 363.855 648.378 344.177 647.699L38.4125 637.137C19.54 636.486 4.69835 620.781 5.11176 601.902L17.4487 38.4841C17.8663 19.4162 33.6762 4.30468 52.7436 4.74878Z" stroke="#0C0902" stroke-opacity="0.21" stroke-width="3"/>
</svg>
