<svg width="384" height="656" viewBox="0 0 384 656" fill="none" xmlns="http://www.w3.org/2000/svg">
<path d="M10.0327 35.8952C10.3777 15.8601 27.0155 -0.037354 47.0455 0.529362L336.32 8.71389C355.495 9.25644 370.877 24.7402 371.293 43.9191L383.691 615.694C384.133 636.078 367.576 652.76 347.19 652.471L35.6063 648.057C15.6832 647.774 -0.221336 631.363 0.121727 611.44L10.0327 35.8952Z" fill="#007F76"/>
<path d="M52.4102 4.74878L338.792 11.4187C357.361 11.8512 372.256 26.9081 372.486 45.4812L379.531 612.791C379.776 632.479 363.521 648.378 343.844 647.699L38.0791 637.137C19.2065 636.486 4.36492 620.781 4.77832 601.902L17.1152 38.4841C17.5328 19.4162 33.3428 4.30468 52.4102 4.74878Z" stroke="#0C0902" stroke-opacity="0.21" stroke-width="3"/>
</svg>
