<svg width="382" height="656" viewBox="0 0 382 656" fill="none" xmlns="http://www.w3.org/2000/svg">
<path d="M377.266 603.55C377.113 623.029 361.494 638.853 342.019 639.26L55.0554 645.253C35.2553 645.666 18.8395 630.009 18.3164 610.211L3.45861 47.951C2.92357 27.7034 19.1914 11 39.4461 11L345.633 11C365.626 11 381.789 27.2905 381.632 47.2825L377.266 603.55Z" fill="#00646A"/>
<path d="M323.832 5.17896L36.4606 14.5178C17.853 15.1225 3.08101 30.3819 3.08075 48.9993L3.08075 604.125C3.08082 623.179 18.5271 638.625 37.5807 638.625H338.305C357.678 638.625 373.254 622.677 372.796 603.309L359.443 38.845C358.99 19.6774 342.995 4.55623 323.832 5.17896Z" stroke="#0C0902" stroke-opacity="0.21" stroke-width="3"/>
</svg>
