<svg width="456" height="313" viewBox="0 0 456 313" fill="none" xmlns="http://www.w3.org/2000/svg">
<path d="M23.8157 45.4939C25.603 26.4951 41.9047 12.1917 60.9747 12.8899L419.977 26.0344C439.864 26.7625 455.388 43.4878 454.634 63.3739L446.83 269.27C446.09 288.787 429.923 304.154 410.394 303.904L39.0372 299.146C18.0083 298.877 1.68685 280.715 3.65665 259.777L23.8157 45.4939Z" fill="#CC4B46"/>
<path d="M21.6016 37.0645C22.2 17.9242 38.4796 3.05376 57.5957 4.18652L417.384 25.5088C436.151 26.6212 450.453 42.7534 449.309 61.5186L436.146 277.375C435.021 295.826 419.361 309.998 400.89 309.28L47.2783 295.535C28.6155 294.81 14.0316 279.166 14.6152 260.498L21.6016 37.0645Z" stroke="#0C0902" stroke-opacity="0.28" stroke-width="4"/>
</svg>
